<svg width="26" height="107" viewBox="0 0 26 107" fill="none" xmlns="http://www.w3.org/2000/svg">
<g opacity="0.5">
<path d="M13.0453 14.9899L25.698 4.02551L22.2839 0L12.7527 8.26447L3.41035 0.16851L0 4.19402L12.7972 15.2857L13.0453 14.9899Z" fill="#00005b"/>
<path d="M12.7527 23.5502L3.41035 15.4542L0 19.4797L12.7972 30.5714L13.0453 30.2756L25.698 19.3112L22.2839 15.2857L12.7527 23.5502Z" fill="#00005b"/>
<path d="M12.7527 38.8322L3.41035 30.74L0 34.7655L12.7972 45.8572L13.0453 45.5613L25.698 34.597L22.2839 30.5714L12.7527 38.8322Z" fill="#00005b"/>
<path d="M12.7527 54.1179L3.41035 46.0257L0 50.0512L12.7972 61.1429L13.0453 60.847L25.698 49.8827L22.2839 45.8571L12.7527 54.1179Z" fill="#00005b"/>
<path d="M22.2839 61.1429L12.7527 69.4036L3.41035 61.3114L0 65.3369L12.7972 76.4286L13.0453 76.1328L25.698 65.1684L22.2839 61.1429Z" fill="#00005b"/>
<path d="M22.2839 76.4286L12.7527 84.6893L3.41035 76.5971L0 80.6226L12.7972 91.7143L13.0453 91.4185L25.698 80.4541L22.2839 76.4286Z" fill="#00005b"/>
<path d="M22.2839 91.7143L12.7527 99.975L3.41035 91.8828L0 95.9083L12.7972 107L13.0453 106.704L25.698 95.7398L22.2839 91.7143Z" fill="#00005b"/>
</g>
</svg>
