<svg width="11" height="11" viewBox="0 0 11 11" fill="none" xmlns="http://www.w3.org/2000/svg">
<path d="M3.22641 2.91951V0.979004V2.91951ZM7.10741 2.91951V0.979004V2.91951ZM2.74128 4.86001H7.59254H2.74128ZM1.77103 9.71126H8.56279C8.82011 9.71126 9.0669 9.60904 9.24886 9.42708C9.43082 9.24512 9.53304 8.99834 9.53304 8.74101V2.91951C9.53304 2.66218 9.43082 2.41539 9.24886 2.23343C9.0669 2.05148 8.82011 1.94925 8.56279 1.94925H1.77103C1.51371 1.94925 1.26692 2.05148 1.08496 2.23343C0.903004 2.41539 0.800781 2.66218 0.800781 2.91951V8.74101C0.800781 8.99834 0.903004 9.24512 1.08496 9.42708C1.26692 9.60904 1.51371 9.71126 1.77103 9.71126Z" stroke="#6A838C" stroke-width="0.970251" stroke-linecap="round" stroke-linejoin="round"/>
</svg>
