<svg width="11" height="11" viewBox="0 0 11 11" fill="none" xmlns="http://www.w3.org/2000/svg">
<path d="M5.38957 3.40414V5.34464L6.84494 6.80002L5.38957 3.40414ZM9.75569 5.34464C9.75569 5.91801 9.64276 6.48577 9.42334 7.01549C9.20392 7.54521 8.88232 8.02653 8.47688 8.43196C8.07145 8.8374 7.59013 9.159 7.06041 9.37842C6.53069 9.59784 5.96293 9.71077 5.38957 9.71077C4.8162 9.71077 4.24844 9.59784 3.71872 9.37842C3.189 9.159 2.70768 8.8374 2.30225 8.43196C1.89681 8.02653 1.57521 7.54521 1.35579 7.01549C1.13637 6.48577 1.02344 5.91801 1.02344 5.34464C1.02344 4.18667 1.48344 3.07613 2.30225 2.25733C3.12105 1.43852 4.2316 0.978516 5.38957 0.978516C6.54754 0.978516 7.65808 1.43852 8.47688 2.25733C9.29569 3.07613 9.75569 4.18667 9.75569 5.34464Z" stroke="#6A838C" stroke-width="0.970251" stroke-linecap="round" stroke-linejoin="round"/>
</svg>
