<svg width="40" height="40" viewBox="0 0 40 40" fill="none" xmlns="http://www.w3.org/2000/svg">
<path fill-rule="evenodd" clip-rule="evenodd" d="M16.6601 0.151636L17.8268 3.14122C17.8618 3.23105 17.9435 3.2888 18.0422 3.29347L21.3252 3.44914C21.5485 3.45972 21.6399 3.73339 21.4656 3.86964L18.9037 5.87297C18.8267 5.93314 18.7955 6.02656 18.8214 6.11931L19.6838 9.20506C19.7424 9.41489 19.5032 9.58406 19.3161 9.46489L16.566 7.71347C16.4833 7.66081 16.3824 7.66081 16.2998 7.71347L13.5498 9.46489C13.3627 9.58406 13.1234 9.41489 13.1821 9.20506L14.0444 6.11922C14.0703 6.02647 14.0392 5.93306 13.9622 5.87289L11.4002 3.86956C11.226 3.7333 11.3174 3.45964 11.5407 3.44905L14.8237 3.29339C14.9224 3.28872 15.004 3.23097 15.0391 3.14114L16.2058 0.151552C16.2845 -0.0505313 16.5813 -0.0505313 16.6601 0.151636ZM32.5332 25.4712C36.657 25.4712 40 28.7236 40 32.7356C40 36.7476 36.657 40 32.5332 40C28.4094 40 25.0664 36.7476 25.0664 32.7356C25.0664 28.7236 28.4094 25.4712 32.5332 25.4712ZM31.5525 33.3763L29.8841 31.7532C29.4517 31.3325 28.7502 31.3325 28.3178 31.7532C27.8854 32.1738 27.8854 32.8562 28.3178 33.2769L30.7717 35.6643C31.2041 36.085 31.9055 36.085 32.3379 35.6643C33.817 34.2253 35.2794 32.7701 36.7516 31.3244C37.1809 30.9029 37.1796 30.2227 36.7468 29.804C36.314 29.3852 35.6129 29.3864 35.1831 29.8087L31.5525 33.3763ZM4.14449 36.1008L24.3988 36.1007C23.9465 35.0672 23.696 33.9298 23.696 32.7356C23.696 30.9192 24.2755 29.2348 25.2636 27.8467C22.9172 25.8115 19.8239 24.5743 16.4331 24.5743C9.9059 24.5743 4.4794 29.1572 3.3664 35.1959C3.27886 35.6702 3.64915 36.1008 4.14449 36.1008ZM16.4331 10.6799C20.1402 10.6799 23.1455 13.6037 23.1455 17.2104C23.1455 20.8171 20.1402 23.7409 16.4331 23.7409C12.7259 23.7409 9.72063 20.8171 9.72063 17.2104C9.72054 13.6037 12.7258 10.6799 16.4331 10.6799ZM27.969 4.38331C27.8901 4.18114 27.5934 4.18114 27.5145 4.38331L26.3478 7.37289C26.3128 7.46281 26.2311 7.52047 26.1324 7.52514L22.8494 7.68081C22.6261 7.69139 22.5347 7.96506 22.7089 8.10131L25.2709 10.1046C25.3479 10.1649 25.379 10.2582 25.3531 10.351L24.4908 13.4368C24.4321 13.6467 24.6714 13.8158 24.8584 13.6966L27.6085 11.9452C27.6911 11.8926 27.792 11.8926 27.8747 11.9452L30.6248 13.6966C30.8119 13.8158 31.0511 13.6466 30.9924 13.4368L30.1301 10.3511C30.1041 10.2583 30.1353 10.165 30.2123 10.1047L32.7742 8.10139C32.9485 7.96514 32.8571 7.69147 32.6338 7.68089L29.3508 7.52522C29.2521 7.52056 29.1705 7.46281 29.1354 7.37297L27.969 4.38331ZM5.35111 4.38331C5.27222 4.18114 4.97552 4.18114 4.89671 4.38331L3.73001 7.37289C3.69497 7.46281 3.61326 7.52047 3.51458 7.52514L0.231601 7.68081C0.00829864 7.69139 -0.0830951 7.96506 0.0911271 8.10131L2.65307 10.1046C2.73007 10.1649 2.76125 10.2582 2.7353 10.351L1.87301 13.4368C1.81433 13.6467 2.05357 13.8158 2.24064 13.6966L4.99068 11.9452C5.07333 11.8926 5.17424 11.8926 5.25689 11.9452L8.00702 13.6966C8.19409 13.8158 8.43332 13.6466 8.37465 13.4368L7.51236 10.3511C7.48641 10.2583 7.51758 10.165 7.59459 10.1047L10.1565 8.10139C10.3308 7.96514 10.2394 7.69147 10.0161 7.68089L6.73307 7.52522C6.6344 7.52056 6.55277 7.46281 6.51765 7.37297L5.35111 4.38331Z" fill="white"/>
</svg>
