<svg width="36" height="40" viewBox="0 0 36 40" fill="none" xmlns="http://www.w3.org/2000/svg">
<path d="M34.9337 33.9868C34.9337 33.9868 30.4941 26.3565 29.6978 24.988C30.6038 24.7116 31.569 24.4675 31.97 23.7751C32.6384 22.6212 31.4487 20.7285 31.7611 19.4917C32.0829 18.2189 33.9826 17.1175 33.9826 15.8237C33.9826 14.5632 32.0186 13.0906 31.6966 11.8252C31.382 10.5887 32.5681 8.69387 31.8976 7.54146C31.2271 6.38893 28.9937 6.48362 28.0744 5.59896C27.1284 4.68857 27.1313 2.46114 25.9904 1.85104C24.8448 1.23868 22.9829 2.47627 21.7109 2.18312C20.4534 1.89331 19.33 0 18.0165 0C16.6836 0 14.5635 2.14766 14.231 2.22495C12.9597 2.52048 11.0954 1.28592 9.95102 1.90088C8.81114 2.51303 8.81817 4.74068 7.87394 5.65258C6.9561 6.53886 4.72261 6.44828 4.05414 7.6021C3.38578 8.7557 4.57549 10.648 4.2632 11.8854C3.95004 13.1259 1.9842 14.3829 1.9842 15.8175C1.9842 17.1114 3.88865 18.2094 4.21239 19.4816C4.52706 20.7181 3.34092 22.6127 4.01144 23.7655C4.37649 24.393 5.20472 24.6506 6.03187 24.8983C6.1284 24.9271 6.31098 25.0351 6.18732 25.2153C5.62143 26.1921 1.06679 34.0528 1.06679 34.0528C0.70445 34.678 0.998688 35.2139 1.72045 35.2443L5.25336 35.3916C5.97512 35.422 6.88054 35.9465 7.26579 36.5576L9.151 39.549C9.53625 40.1601 10.1475 40.1486 10.5098 39.5235C10.5098 39.5235 15.7845 30.4168 15.7867 30.4142C15.8925 30.2906 15.9989 30.316 16.0498 30.3592C16.6269 30.8506 17.4315 31.3408 18.103 31.3408C18.7615 31.3408 19.3713 30.8794 19.9745 30.3647C20.0236 30.3229 20.143 30.2372 20.2303 30.4151C20.2317 30.4179 25.5007 39.4748 25.5007 39.4748C25.8639 40.0991 26.4753 40.1097 26.8594 39.4979L28.7393 36.5029C29.1234 35.8914 30.0279 35.3648 30.7496 35.3334L34.2822 35.1794C35.0037 35.1478 35.2969 34.6111 34.9337 33.9868ZM23.8551 25.7952C19.949 28.0677 15.2603 27.8241 11.679 25.5652C6.43151 22.204 4.70488 15.2508 7.85946 9.80608C11.05 4.29856 18.0637 2.3552 23.6208 5.3818C23.65 5.39769 23.6788 5.41412 23.7078 5.43033C23.749 5.45314 23.7901 5.47627 23.831 5.49962C25.5454 6.48806 27.0321 7.9226 28.0966 9.75235C31.3501 15.3448 29.4475 22.5417 23.8551 25.7952Z" fill="white"/>
<path d="M22.9619 7.14463C22.9457 7.13523 22.9292 7.12647 22.913 7.11717C19.9445 5.39909 16.1609 5.27348 12.9899 7.11836C8.28421 9.85601 6.68298 15.9115 9.42063 20.617C10.256 22.053 11.4007 23.1992 12.7215 24.0218C12.8338 24.093 12.9474 24.1629 13.0635 24.2301C17.7742 26.9592 23.8264 25.3471 26.5554 20.6366C29.2843 15.9258 27.6726 9.87374 22.9619 7.14463ZM24.1403 14.8455L22.4909 16.4532C21.98 16.9511 21.6607 17.934 21.7815 18.6371L22.1708 20.9073C22.2915 21.6104 21.8736 21.9141 21.2421 21.5821L19.2033 20.5102C18.5718 20.1782 17.5385 20.1782 16.907 20.5102L14.8683 21.5821C14.2368 21.9141 13.8188 21.6104 13.9394 20.9073L14.3288 18.6371C14.4494 17.934 14.1301 16.9511 13.6192 16.4532L11.9699 14.8455C11.4589 14.3476 11.6187 13.8562 12.3246 13.7535L14.604 13.4223C15.3099 13.3197 16.146 12.7124 16.4617 12.0726L17.4811 10.0072C17.7968 9.36753 18.3135 9.36753 18.6292 10.0072L19.6486 12.0726C19.9644 12.7124 20.8003 13.3197 21.5064 13.4223L23.7857 13.7535C24.4915 13.8562 24.6512 14.3476 24.1403 14.8455Z" fill="white"/>
</svg>
