<svg width="585" height="507" viewBox="0 0 585 507" fill="none" xmlns="http://www.w3.org/2000/svg">
<g opacity="0.1">
<path d="M507.1 236.199L501.6 298.199C501.6 298.599 501.3 298.999 500.9 299.199L444.6 325.399C444.2 325.599 443.8 325.499 443.4 325.299L392.6 289.499C392.3 289.299 392.1 288.799 392.1 288.399L397.6 226.399C397.6 225.999 397.9 225.599 398.3 225.399L454.6 199.199C455 198.999 455.4 199.099 455.8 199.299L506.6 235.099C506.9 235.299 507.1 235.599 507.1 235.999C507.1 235.999 507.1 236.099 507.1 236.199ZM399.9 227.299L394.5 287.899L444.2 322.899L499.3 297.299L504.7 236.699L455 201.699L399.9 227.299Z" fill="white"/>
<path d="M508.1 229.299L508 295.499C508 295.899 507.8 296.299 507.4 296.499L450.1 329.499C449.7 329.699 449.3 329.699 448.9 329.499L391.7 296.299C391.3 296.099 391.1 295.699 391.1 295.299L391.2 229.099C391.2 228.699 391.4 228.299 391.8 228.099L449.1 195.099C449.5 194.899 449.9 194.899 450.3 195.099L507.5 228.299C507.8 228.499 508 228.799 508.1 229.199C508 229.199 508.1 229.199 508.1 229.299ZM393.6 229.699L393.5 294.499L449.5 326.999L505.6 294.699L505.7 229.899L449.7 197.399L393.6 229.699Z" fill="white"/>
<path d="M513.9 293.098L456.2 333.398C455.9 333.598 455.4 333.698 455 333.498L391.3 303.598C390.9 303.398 390.7 303.098 390.6 302.598L384.6 232.398C384.6 231.998 384.8 231.598 385.1 231.298L442.8 190.998C443.1 190.798 443.6 190.698 444 190.898L507.7 220.798C508.1 220.998 508.3 221.298 508.4 221.798L514.4 291.998C514.4 292.498 514.3 292.898 513.9 293.098ZM443.7 193.398L387.2 232.898L393.1 301.698L455.5 330.998L512 291.498L506.1 222.698L443.7 193.398Z" fill="white"/>
<path d="M520.6 288.898L463.2 336.898C462.9 337.198 462.4 337.198 462 337.098L391.8 311.298C391.4 311.198 391.1 310.798 391 310.398L378.1 236.598C378 236.198 378.2 235.798 378.5 235.498L435.9 187.498C436.2 187.198 436.7 187.198 437.1 187.298L507.3 213.098C507.7 213.198 508 213.598 508.1 213.998L521 287.798V287.898C521 288.298 520.9 288.698 520.6 288.898ZM437 189.798L380.7 236.998L393.3 309.498L462.3 334.798L518.6 287.598L506 215.098L437 189.798Z" fill="white"/>
<path d="M527.2 283.902L470.9 340.102C470.6 340.402 470.2 340.502 469.8 340.402L393 319.602C392.6 319.502 392.3 319.202 392.2 318.802L371.7 241.802C371.6 241.402 371.7 241.002 372 240.702L428.3 184.502C428.6 184.202 429 184.102 429.4 184.202L506.2 205.002C506.6 205.102 506.9 205.402 507 205.802L527.5 282.802C527.5 282.902 527.5 282.902 527.5 283.002C527.6 283.302 527.5 283.702 527.2 283.902ZM429.5 186.502L374.1 241.802L394.2 317.502L469.7 338.002L525.1 282.702L505 207.002L429.5 186.502Z" fill="white"/>
<path d="M533.8 277.899L479.3 342.699C479 342.999 478.6 343.199 478.2 343.099L394.9 328.199C394.5 328.099 394.1 327.799 394 327.399L365.2 247.699C365.1 247.299 365.1 246.899 365.4 246.499L419.9 181.699C420.2 181.399 420.6 181.199 421 181.299L504.3 196.199C504.7 196.299 505.1 196.599 505.2 196.999L534 276.699C534 276.799 534.1 276.899 534.1 276.999C534.1 277.399 534 277.699 533.8 277.899ZM421.2 183.799L367.6 247.599L396 325.999L478 340.699L531.6 276.899L503.2 198.399L421.2 183.799Z" fill="white"/>
<path d="M540.3 270.999L488.5 344.699C488.3 344.999 487.9 345.199 487.4 345.199L397.7 337.099C397.3 337.099 396.9 336.799 396.7 336.399L358.7 254.599C358.5 254.199 358.6 253.799 358.8 253.399L410.6 179.699C410.8 179.399 411.2 179.199 411.7 179.199L501.4 187.299C501.8 187.299 502.2 187.599 502.4 187.999L540.4 269.799C540.5 269.899 540.5 270.099 540.5 270.199C540.5 270.499 540.4 270.799 540.3 270.999ZM412.2 181.699L361.2 254.299L398.6 334.899L487 342.899L538 270.299L500.6 189.699L412.2 181.699Z" fill="white"/>
<path d="M546.4 263.101L498.4 346.001C498.2 346.401 497.8 346.601 497.4 346.601L401.6 346.301C401.2 346.301 400.8 346.101 400.6 345.701L352.8 262.501C352.6 262.101 352.6 261.701 352.8 261.301L400.8 178.401C401 178.001 401.4 177.801 401.8 177.801L497.6 178.101C498 178.101 498.4 178.301 498.6 178.701L546.4 261.901C546.5 262.101 546.5 262.201 546.6 262.401C546.6 262.701 546.6 262.901 546.4 263.101ZM402.4 180.201L355.1 262.001L402.2 344.001L496.7 344.301L544 262.501L496.9 180.501L402.4 180.201Z" fill="white"/>
<path d="M552.2 254.099L509 346.499C508.8 346.899 508.5 347.099 508 347.199L406.4 355.799C406 355.799 405.6 355.599 405.3 355.299L347 271.499C346.8 271.199 346.7 270.699 346.9 270.299L390.1 177.999C390.3 177.599 390.6 177.399 391.1 177.299L492.7 168.699C493.1 168.699 493.5 168.899 493.8 169.199L552.2 252.899C552.3 253.099 552.4 253.299 552.4 253.499C552.4 253.799 552.3 253.999 552.2 254.099ZM392 179.599L349.4 270.699L407 353.299L507.2 344.799L549.8 253.699L492.2 171.099L392 179.599Z" fill="white"/>
<path d="M557.5 244.102L520.3 346.002C520.2 346.402 519.8 346.702 519.4 346.802L412.5 365.302C412.1 365.402 411.7 365.202 411.4 364.902L341.8 281.602C341.5 281.302 341.5 280.802 341.6 280.402L378.8 178.502C378.9 178.102 379.3 177.802 379.7 177.702L486.6 159.202C487 159.102 487.4 159.302 487.7 159.602L557.3 242.902C557.5 243.102 557.5 243.302 557.6 243.602C557.6 243.802 557.6 244.002 557.5 244.102ZM380.8 180.002L344.1 280.602L412.9 362.902L518.4 344.602L555.1 244.002L486.3 161.702L380.8 180.002Z" fill="white"/>
<path d="M562.2 232.999L532.2 344.399C532.1 344.799 531.8 345.099 531.4 345.199L419.9 374.799C419.5 374.899 419.1 374.799 418.8 374.499L337.3 292.699C337 292.399 336.9 291.999 337 291.599L367 180.199C367.1 179.799 367.4 179.499 367.8 179.399L479.3 149.799C479.7 149.699 480.1 149.799 480.4 150.099L561.9 231.899C562.1 232.099 562.2 232.399 562.2 232.599C562.3 232.699 562.3 232.899 562.2 232.999ZM369 181.399L339.4 291.499L420 372.399L530.2 343.199L559.8 233.099L479.2 152.199L369 181.399Z" fill="white"/>
<path d="M566.2 220.798L544.7 341.598C544.6 341.998 544.3 342.398 543.9 342.498L428.5 384.198C428.1 384.298 427.7 384.298 427.3 383.998L333.3 304.798C333 304.498 332.8 304.098 332.9 303.698L354.4 182.898C354.5 182.498 354.8 182.098 355.2 181.998L470.6 140.298C471 140.198 471.4 140.198 471.8 140.498L565.8 219.698C566 219.898 566.2 220.198 566.2 220.498C566.2 220.598 566.2 220.698 566.2 220.798ZM356.6 183.998L335.4 303.498L428.4 381.798L542.6 340.598L563.8 221.098L470.8 142.798L356.6 183.998Z" fill="white"/>
<path d="M569.2 207.501L557.7 337.601C557.7 338.001 557.4 338.401 557 338.601L438.5 393.501C438.1 393.701 437.7 393.601 437.3 393.401L330.3 318.201C330 318.001 329.8 317.601 329.8 317.101L341.5 187.001C341.5 186.601 341.8 186.201 342.2 186.001L460.7 131.101C461.1 130.901 461.5 131.001 461.9 131.201L568.9 206.401C569.2 206.601 569.4 206.901 569.4 207.301C569.2 207.401 569.2 207.401 569.2 207.501ZM343.7 187.801L332.3 316.501L438.2 391.001L555.5 336.701L566.8 208.001L461 133.501L343.7 187.801Z" fill="white"/>
<path d="M571.2 193.1L571.1 332C571.1 332.4 570.9 332.8 570.5 333L450 402.2C449.6 402.4 449.2 402.4 448.8 402.2L328.5 332.4C328.1 332.2 327.9 331.8 327.9 331.4L328.1 192.5C328.1 192.1 328.3 191.7 328.7 191.5L449.2 122.4C449.6 122.2 450 122.2 450.4 122.4L570.7 192.2C571 192.4 571.2 192.7 571.3 193.1C571.2 193.1 571.2 193.1 571.2 193.1ZM330.4 193.2L330.2 330.8L449.4 399.9L568.7 331.4L568.9 193.8L449.7 124.7L330.4 193.2Z" fill="white"/>
<path d="M584.2 325.998L463 410.398C462.7 410.598 462.2 410.698 461.8 410.498L327.8 347.698C327.4 347.498 327.2 347.198 327.1 346.698L314.4 199.498C314.4 199.098 314.6 198.698 314.9 198.398L436.2 113.998C436.5 113.798 437 113.698 437.4 113.898L571.4 176.698C571.8 176.898 572 177.198 572.1 177.698L584.7 324.998C584.8 325.398 584.6 325.798 584.2 325.998ZM437 116.398L316.8 199.998L329.4 345.898L462.2 408.098L582.4 324.398L569.8 178.498L437 116.398Z" fill="white"/>
<path d="M598.2 317.3L477.5 418C477.2 418.3 476.7 418.3 476.3 418.2L328.5 364.1C328.1 364 327.8 363.6 327.7 363.2L300.6 208.4C300.5 208 300.7 207.6 301 207.3L421.7 106.6C422 106.3 422.5 106.3 422.9 106.4L570.7 160.5C571.1 160.6 571.4 161 571.5 161.4L598.6 316.2V316.3C598.6 316.7 598.5 317 598.2 317.3ZM422.7 108.7L303 208.6L329.9 362.1L476.4 415.8L596.1 315.9L569.2 162.4L422.7 108.7Z" fill="white"/>
<path d="M612.1 306.7L493.5 424.7C493.2 425 492.8 425.1 492.4 425L330.7 381.3C330.3 381.2 330 380.9 329.9 380.5L286.8 218.9C286.7 218.5 286.8 218.1 287.1 217.8L405.7 99.9C406 99.6 406.4 99.5 406.8 99.6L568.5 143.3C568.9 143.4 569.2 143.7 569.3 144.1L612.4 305.7C612.4 305.8 612.4 305.8 612.4 305.9C612.5 306.2 612.3 306.5 612.1 306.7ZM406.8 102L289.2 219L332 379.2L492.4 422.5L610 305.5L567.3 145.2L406.8 102Z" fill="white"/>
<path d="M625.9 294.302L511.2 430.302C510.9 430.602 510.5 430.802 510.1 430.702L334.7 399.402C334.3 399.302 333.9 399.002 333.8 398.602L273.1 231.302C273 230.902 273 230.502 273.3 230.102L388 94.1018C388.3 93.8018 388.7 93.6018 389.1 93.7018L564.5 125.002C564.9 125.102 565.3 125.402 565.4 125.802L626.1 293.102C626.1 293.202 626.2 293.302 626.2 293.402C626.2 293.702 626.1 294.102 625.9 294.302ZM389.4 96.3018L275.5 231.202L335.7 397.202L509.8 428.202L623.7 293.302L563.5 127.302L389.4 96.3018Z" fill="white"/>
<path d="M639.3 279.798L530.3 434.498C530.1 434.798 529.7 434.998 529.2 434.998L340.4 418.098C340 418.098 339.6 417.798 339.4 417.398L259.6 245.798C259.4 245.398 259.5 244.998 259.7 244.598L368.7 89.8984C368.9 89.5984 369.3 89.3984 369.8 89.3984L558.6 106.298C559 106.298 559.4 106.598 559.6 106.998L639.4 278.598C639.5 278.698 639.5 278.898 639.5 278.998C639.5 279.298 639.5 279.598 639.3 279.798ZM370.4 91.8984L262.2 245.498L341.4 415.898L528.8 432.698L637 278.998L557.8 108.598L370.4 91.8984Z" fill="white"/>
<path d="M652.201 263.202L551.101 437.302C550.901 437.702 550.501 437.902 550.101 437.902L348.501 437.502C348.101 437.502 347.701 437.302 347.501 436.902L247.001 262.502C246.801 262.102 246.801 261.702 247.001 261.302L348.101 87.2016C348.301 86.8016 348.701 86.6016 349.101 86.6016L550.701 87.0016C551.101 87.0016 551.501 87.2016 551.701 87.6016L652.201 262.102C652.301 262.302 652.301 262.402 652.401 262.602C652.401 262.802 652.301 263.002 652.201 263.202ZM349.801 88.9016L249.301 261.902L349.101 435.202L549.401 435.602L649.901 262.702L550.101 89.4016L349.801 88.9016Z" fill="white"/>
<path d="M664.4 244.502L573.3 438.402C573.1 438.802 572.8 439.002 572.3 439.102L358.6 457.402C358.2 457.402 357.8 457.202 357.5 456.902L234.9 281.202C234.7 280.902 234.6 280.402 234.8 280.002L325.9 86.1016C326.1 85.7016 326.4 85.5016 326.9 85.4016L540.6 67.1016C541 67.1016 541.4 67.3016 541.7 67.6016L664.4 243.202C664.5 243.402 664.6 243.602 664.6 243.802C664.5 244.102 664.4 244.302 664.4 244.502ZM327.7 87.8016L237.2 280.502L359.1 455.002L571.5 436.802L662 244.102L540.1 69.6016L327.7 87.8016Z" fill="white"/>
<path d="M675.5 223.5L597 437.4C596.9 437.8 596.5 438.1 596.1 438.2L371.3 477.4C370.9 477.5 370.5 477.3 370.2 477L223.9 302.2C223.6 301.9 223.6 301.4 223.7 301L302.2 87.1002C302.3 86.7002 302.7 86.4002 303.1 86.3002L527.9 47.1002C528.3 47.0002 528.7 47.2002 529 47.5002L675.3 222.2C675.5 222.4 675.5 222.6 675.6 222.9C675.6 223.1 675.5 223.3 675.5 223.5ZM304.2 88.6002L226.1 301.2L371.5 474.9L595 436L673 223.3L527.6 49.6002L304.2 88.6002Z" fill="white"/>
<path d="M685.3 200.202L621.9 434.202C621.8 434.602 621.5 434.902 621.1 435.002L386.5 497.402C386.1 497.502 385.7 497.402 385.4 497.102L214.2 325.502C213.9 325.202 213.8 324.802 213.9 324.402L277.3 90.4016C277.4 90.0016 277.7 89.7016 278.1 89.6016L512.7 27.2016C513.1 27.1016 513.5 27.2016 513.8 27.5016L685 199.102C685.2 199.302 685.3 199.602 685.3 199.802C685.4 199.902 685.4 200.102 685.3 200.202ZM279.3 91.6016L216.3 324.302L386.6 495.002L619.9 433.002L682.9 200.302L512.6 29.6016L279.3 91.6016Z" fill="white"/>
<path d="M693.6 174.6L648.1 428.5C648 428.9 647.7 429.3 647.3 429.4L404.5 517.3C404.1 517.4 403.7 517.4 403.3 517.1L206 351C205.7 350.7 205.5 350.3 205.6 349.9L251.1 96.0004C251.2 95.6004 251.5 95.2004 251.9 95.1004L494.7 7.20043C495.1 7.10043 495.5 7.10043 495.9 7.40043L693.3 173.4C693.5 173.6 693.7 173.9 693.7 174.2C693.6 174.4 693.6 174.5 693.6 174.6ZM253.3 97.1004L208 349.7L404.3 514.8L645.9 427.4L691.1 174.9L494.8 9.70043L253.3 97.1004Z" fill="white"/>
<path d="M700 146.7L675.3 420C675.3 420.4 675 420.8 674.6 421L425.4 536.6C425 536.8 424.6 536.7 424.2 536.5L199.7 378.8C199.4 378.6 199.2 378.2 199.2 377.7L223.9 104.5C223.9 104.1 224.2 103.7 224.6 103.5L473.7 -12.0004C474.1 -12.2004 474.5 -12.1004 474.9 -11.9004L699.5 145.7C699.8 145.9 700 146.2 700 146.6V146.7ZM226.1 105.4L201.6 377.3L425 534.1L673 419L697.5 147.1L474.1 -9.60037L226.1 105.4Z" fill="white"/>
<path d="M704.1 116.6L703.3 408.5C703.3 408.9 703.1 409.3 702.7 409.5L449.4 555.1C449 555.3 448.6 555.3 448.2 555.1L195.6 408.9C195.2 408.7 195 408.3 195 407.9L195.8 116C195.8 115.6 196 115.2 196.4 115L449.8 -30.6C450.2 -30.8 450.6 -30.8 451 -30.6L703.6 115.6C703.9 115.8 704.1 116.1 704.2 116.5C704.1 116.6 704.1 116.6 704.1 116.6ZM198.2 116.7L197.4 407.2L448.8 552.8L701 407.8L701.8 117.3L450.4 -28.3L198.2 116.7Z" fill="white"/>
<path d="M705.8 84.3004L732 393.7C732 394.1 731.8 394.5 731.5 394.8L476.5 572.6C476.2 572.8 475.7 572.9 475.3 572.7L194.1 441.2C193.7 441 193.5 440.7 193.4 440.2L167.2 130.8C167.2 130.4 167.4 130 167.7 129.7L422.7 -48.0996C423 -48.2996 423.5 -48.3996 423.9 -48.1996L705.2 83.3004C705.5 83.5004 705.8 83.9004 705.8 84.3004ZM169.6 131.3L195.7 439.3L475.7 570.3L729.6 393.2L703.5 85.2004L423.5 -45.7996L169.6 131.3Z" fill="white"/>
<path d="M760.6 376.5L506.8 588.6C506.5 588.9 506 588.9 505.6 588.8L195.4 475.5C195 475.4 194.7 475 194.6 474.6L138.1 149.1C138 148.7 138.2 148.3 138.5 148L392.4 -64.0996C392.7 -64.3996 393.2 -64.3996 393.6 -64.2996L703.8 49.0004C704.2 49.1004 704.5 49.5004 704.6 49.9004L761 375.4V375.5C761.1 375.9 760.9 376.3 760.6 376.5ZM393.3 -61.8996L140.6 149.4L196.8 473.5L505.8 586.4L758.6 375.2L702.3 51.0004L393.3 -61.8996Z" fill="white"/>
<path d="M789.701 354.398L540.401 602.798C540.101 603.098 539.701 603.198 539.301 603.098L200.001 511.698C199.601 511.598 199.301 511.298 199.201 510.898L109.201 171.198C109.101 170.798 109.201 170.398 109.501 170.098L358.701 -78.2016C359.001 -78.5016 359.401 -78.6016 359.801 -78.5016L699.101 12.7984C699.501 12.8984 699.801 13.1984 699.901 13.5984L789.901 353.298C789.901 353.398 789.901 353.398 789.901 353.498C790.101 353.798 790.001 354.198 789.701 354.398ZM359.901 -76.1016L111.601 171.298L201.301 509.698L539.301 600.698L787.601 353.298L697.901 14.8984L359.901 -76.1016Z" fill="white"/>
<path d="M818.6 328.399L577.4 614.599C577.1 614.899 576.7 615.099 576.3 614.999L208.2 549.699C207.8 549.599 207.4 549.299 207.3 548.899L80.4001 197.299C80.3001 196.899 80.3001 196.499 80.6001 196.099L321.8 -90.1013C322.1 -90.4013 322.5 -90.6013 322.9 -90.5013L691 -25.2013C691.4 -25.1013 691.8 -24.8013 691.9 -24.4013L818.8 327.199C818.8 327.299 818.9 327.399 818.9 327.499C818.9 327.799 818.8 328.099 818.6 328.399ZM323.1 -88.1013L82.8001 197.199L209.2 547.599L576 612.599L816.3 327.299L689.9 -23.0013L323.1 -88.1013Z" fill="white"/>
<path d="M846.7 298.102L617.7 623.902C617.5 624.202 617.1 624.402 616.6 624.402L220.5 589.302C220.1 589.302 219.7 589.002 219.5 588.602L52.4 227.602C52.2 227.202 52.3 226.802 52.5 226.402L281.5 -99.3984C281.7 -99.6984 282.1 -99.8984 282.6 -99.8984L678.7 -64.7984C679.1 -64.7984 679.5 -64.4984 679.7 -64.0984L846.8 296.802C846.9 296.902 846.9 297.102 846.9 297.202C846.9 297.602 846.8 297.802 846.7 298.102ZM283.1 -97.3984L54.8 227.302L221.3 587.002L616.1 622.002L844.4 297.302L677.9 -62.3984L283.1 -97.3984Z" fill="white"/>
<path d="M873.701 263.302L661.101 629.802C660.901 630.202 660.501 630.402 660.101 630.402L237.001 629.902C236.601 629.902 236.201 629.702 236.001 629.302L25.5006 262.302C25.3006 261.902 25.3006 261.502 25.5006 261.102L238.001 -105.298C238.201 -105.698 238.601 -105.898 239.001 -105.898L662.101 -105.398C662.501 -105.398 662.901 -105.198 663.101 -104.798L873.601 262.202C873.701 262.402 873.701 262.502 873.801 262.702C873.901 262.902 873.801 263.102 873.701 263.302ZM239.701 -103.498L27.9006 261.802L237.801 627.602L659.501 628.102L871.401 262.802L661.401 -102.998L239.701 -103.498Z" fill="white"/>
<path d="M899.1 224.1L707.8 632.1C707.6 632.5 707.3 632.7 706.8 632.8L258.4 671.5C258 671.5 257.6 671.3 257.3 671L0.200228 301.6C0.000227928 301.3 -0.0997721 300.8 0.100228 300.4L191.4 -107.6C191.6 -108 191.9 -108.2 192.4 -108.3L640.7 -147C641.1 -147 641.5 -146.8 641.8 -146.5L899 222.9C899.1 223.1 899.2 223.3 899.2 223.5C899.2 223.7 899.2 223.9 899.1 224.1ZM193.2 -106L2.50023 300.9L258.9 669.2L706 630.5L896.7 223.6L640.3 -144.6L193.2 -106Z" fill="white"/>
</g>
</svg>
