<svg width="63" height="63" viewBox="0 0 63 63" fill="none" xmlns="http://www.w3.org/2000/svg">
<path d="M55.8743 16.6042V61.2917H12.541V7.125H46.3952L55.8743 16.6042Z" fill="#F8F9F9"/>
<path opacity="0.4" d="M55.8737 16.6042H49.1029C48.3846 16.6042 47.6957 16.3188 47.1878 15.8109C46.6799 15.303 46.3945 14.6141 46.3945 13.8958V7.125L55.8737 16.6042Z" fill="#028835"/>
<path opacity="0.4" d="M61.2904 1.71094V55.8776H55.8737V16.6068L46.3945 7.1276H17.957V1.71094H61.2904Z" fill="#028835"/>
<path d="M55.8744 17.961H49.1035C48.0261 17.961 46.9928 17.533 46.2309 16.7711C45.4691 16.0093 45.041 14.9759 45.041 13.8985V7.12767C45.0395 6.8587 45.118 6.59535 45.2667 6.37121C45.4154 6.14707 45.6275 5.97229 45.8759 5.86914C46.1243 5.766 46.3978 5.73917 46.6615 5.79208C46.9253 5.84499 47.1673 5.97523 47.3567 6.16621L56.8358 15.6454C57.0268 15.8348 57.1571 16.0768 57.21 16.3405C57.2629 16.6042 57.236 16.8777 57.1329 17.1261C57.0298 17.3745 56.855 17.5866 56.6308 17.7353C56.4067 17.884 56.1433 17.9626 55.8744 17.961ZM47.7494 10.3912V13.8985C47.7494 14.2576 47.892 14.6021 48.146 14.856C48.4 15.11 48.7444 15.2527 49.1035 15.2527H52.6108L47.7494 10.3912Z" fill="#004C3F"/>
<path d="M55.875 62.6485H12.5417C12.1825 62.6485 11.8381 62.5058 11.5841 62.2518C11.3302 61.9979 11.1875 61.6534 11.1875 61.2943V7.12763C11.1875 6.76848 11.3302 6.42404 11.5841 6.17009C11.8381 5.91613 12.1825 5.77346 12.5417 5.77346H46.3958C46.5741 5.77243 46.7507 5.80659 46.9157 5.87398C47.0807 5.94137 47.2308 6.04066 47.3573 6.16617L56.8365 15.6453C56.962 15.7719 57.0613 15.9219 57.1286 16.0869C57.196 16.2519 57.2302 16.4286 57.2292 16.6068V61.2943C57.2292 61.6534 57.0865 61.9979 56.8325 62.2518C56.5786 62.5058 56.2341 62.6485 55.875 62.6485ZM13.8958 59.9401H54.5208V17.162L45.8406 8.48179H13.8958V59.9401Z" fill="#004C3F"/>
<path opacity="0.4" d="M1.70703 50.4609H28.7904V55.8776H1.70703V50.4609ZM1.70703 55.8776H28.7904V61.2943H1.70703V55.8776Z" fill="#028835"/>
<path d="M61.291 57.2305H55.8744C55.5152 57.2305 55.1708 57.0878 54.9168 56.8338C54.6629 56.5799 54.5202 56.2354 54.5202 55.8763C54.5202 55.5172 54.6629 55.1727 54.9168 54.9188C55.1708 54.6648 55.5152 54.5221 55.8744 54.5221H59.9369V3.0638H19.3118V7.1263C19.3118 7.48545 19.1692 7.82989 18.9152 8.08384C18.6613 8.3378 18.3168 8.48047 17.9577 8.48047C17.5985 8.48047 17.2541 8.3378 17.0001 8.08384C16.7462 7.82989 16.6035 7.48545 16.6035 7.1263V1.70964C16.6035 1.35049 16.7462 1.00605 17.0001 0.752095C17.2541 0.498139 17.5985 0.355469 17.9577 0.355469H61.291C61.6502 0.355469 61.9946 0.498139 62.2486 0.752095C62.5025 1.00605 62.6452 1.35049 62.6452 1.70964V55.8763C62.6452 56.2354 62.5025 56.5799 62.2486 56.8338C61.9946 57.0878 61.6502 57.2305 61.291 57.2305ZM28.791 57.2305H1.70768C1.34854 57.2305 1.0041 57.0878 0.750142 56.8338C0.496186 56.5799 0.353516 56.2354 0.353516 55.8763V50.4596C0.353516 50.1005 0.496186 49.756 0.750142 49.5021C1.0041 49.2481 1.34854 49.1055 1.70768 49.1055H28.791C29.1502 49.1055 29.4946 49.2481 29.7486 49.5021C30.0025 49.756 30.1452 50.1005 30.1452 50.4596V55.8763C30.1452 56.2354 30.0025 56.5799 29.7486 56.8338C29.4946 57.0878 29.1502 57.2305 28.791 57.2305ZM3.06185 54.5221H27.4369V51.8138H3.06185V54.5221Z" fill="#004C3F"/>
<path d="M28.791 62.6484H1.70768C1.34853 62.6484 1.0041 62.5058 0.750142 62.2518C0.496186 61.9979 0.353516 61.6534 0.353516 61.2943V55.8776C0.353516 55.5185 0.496186 55.174 0.750142 54.9201C1.0041 54.6661 1.34853 54.5234 1.70768 54.5234H28.791C29.1502 54.5234 29.4946 54.6661 29.7486 54.9201C30.0025 55.174 30.1452 55.5185 30.1452 55.8776V61.2943C30.1452 61.6534 30.0025 61.9979 29.7486 62.2518C29.4946 62.5058 29.1502 62.6484 28.791 62.6484ZM3.06185 59.9401H27.4368V57.2318H3.06185V59.9401Z" fill="#004C3F"/>
<path d="M12.5417 49.1055H17.9583C18.3175 49.1055 18.6619 49.2481 18.9159 49.5021C19.1698 49.756 19.3125 50.1005 19.3125 50.4596V61.293H11.1875V50.4596C11.1875 50.1005 11.3302 49.756 11.5841 49.5021C11.8381 49.2481 12.1825 49.1055 12.5417 49.1055Z" fill="#F8F9F9"/>
<path d="M19.3112 62.6458H11.1862C10.8271 62.6458 10.4826 62.5032 10.2287 62.2492C9.9747 61.9953 9.83203 61.6508 9.83203 61.2917V50.4583C9.83203 49.74 10.1174 49.0512 10.6253 48.5433C11.1332 48.0353 11.8221 47.75 12.5404 47.75H17.957C18.6753 47.75 19.3642 48.0353 19.8721 48.5433C20.38 49.0512 20.6654 49.74 20.6654 50.4583V61.2917C20.6654 61.6508 20.5227 61.9953 20.2687 62.2492C20.0148 62.5032 19.6703 62.6458 19.3112 62.6458ZM12.5404 59.9375H17.957V50.4583H12.5404V59.9375Z" fill="#004C3F"/>
<path opacity="0.4" d="M34.2073 57.2318C33.992 57.2323 33.7796 57.1815 33.5878 57.0836C33.3961 56.9857 33.2304 56.8434 33.1047 56.6686C32.9789 56.4939 32.8966 56.2916 32.8646 56.0787C32.8326 55.8658 32.8519 55.6483 32.9208 55.4443C33.8281 52.7359 36.2927 46.3984 39.6239 46.3984C42.3323 46.3984 42.8198 49.4724 42.6573 52.1672C43.4735 51.7735 44.4095 51.707 45.2732 51.9815C46.1369 52.2559 46.8628 52.8505 47.3021 53.6432C48.3041 53.2473 49.3832 53.0852 50.4573 53.1693C50.8164 53.1693 51.1609 53.3119 51.4148 53.5659C51.6688 53.8199 51.8114 54.1643 51.8114 54.5234C51.8114 54.8826 51.6688 55.227 51.4148 55.481C51.1609 55.7349 50.8164 55.8776 50.4573 55.8776H49.6583C49.2298 55.8761 48.8054 55.9604 48.41 56.1255C48.0147 56.2906 47.6563 56.5332 47.3562 56.8391C47.1668 57.03 46.9248 57.1603 46.6611 57.2132C46.3974 57.2661 46.1239 57.2393 45.8755 57.1361C45.6271 57.033 45.415 56.8582 45.2663 56.6341C45.1176 56.4099 45.039 56.1466 45.0406 55.8776V55.363C45.0354 55.2231 44.9957 55.0867 44.9253 54.9657C44.8548 54.8447 44.7557 54.7429 44.6366 54.6693C44.5175 54.5957 44.3821 54.5526 44.2424 54.5436C44.1026 54.5347 43.9629 54.5604 43.8354 54.6182L41.5875 55.7286C41.3599 55.8505 41.1022 55.9047 40.8448 55.885C40.5874 55.8652 40.341 55.7723 40.1347 55.6172C39.9283 55.4621 39.7706 55.2512 39.6801 55.0095C39.5896 54.7677 39.5701 54.5051 39.6239 54.2526C40.0573 52.0589 40.0302 49.4995 39.6239 49.0797C38.8656 49.0797 36.8479 52.3161 35.5614 56.3109C35.4672 56.5912 35.2838 56.833 35.0393 56.9992C34.7948 57.1655 34.5026 57.2472 34.2073 57.2318Z" fill="#028835"/>
<path opacity="0.4" d="M38.2695 12.543H19.3112C18.5633 12.543 17.957 13.1492 17.957 13.8971V16.6055C17.957 17.3534 18.5633 17.9596 19.3112 17.9596H38.2695C39.0174 17.9596 39.6237 17.3534 39.6237 16.6055V13.8971C39.6237 13.1492 39.0174 12.543 38.2695 12.543Z" fill="#028835"/>
<path opacity="0.4" d="M50.4577 23.3763H17.9577C17.5985 23.3763 17.2541 23.2336 17.0001 22.9797C16.7462 22.7257 16.6035 22.3813 16.6035 22.0221C16.6035 21.663 16.7462 21.3185 17.0001 21.0646C17.2541 20.8106 17.5985 20.668 17.9577 20.668H50.4577C50.8168 20.668 51.1613 20.8106 51.4152 21.0646C51.6692 21.3185 51.8118 21.663 51.8118 22.0221C51.8118 22.3813 51.6692 22.7257 51.4152 22.9797C51.1613 23.2336 50.8168 23.3763 50.4577 23.3763ZM42.3327 28.793H24.7285C24.3694 28.793 24.0249 28.6503 23.771 28.3963C23.517 28.1424 23.3743 27.7979 23.3743 27.4388C23.3743 27.0797 23.517 26.7352 23.771 26.4813C24.0249 26.2273 24.3694 26.0846 24.7285 26.0846H42.3327C42.6918 26.0846 43.0363 26.2273 43.2902 26.4813C43.5442 26.7352 43.6868 27.0797 43.6868 27.4388C43.6868 27.7979 43.5442 28.1424 43.2902 28.3963C43.0363 28.6503 42.6918 28.793 42.3327 28.793ZM31.4993 34.2096H24.7285C24.3694 34.2096 24.0249 34.067 23.771 33.813C23.517 33.5591 23.3743 33.2146 23.3743 32.8555C23.3743 32.4963 23.517 32.1519 23.771 31.8979C24.0249 31.644 24.3694 31.5013 24.7285 31.5013H31.4993C31.8585 31.5013 32.2029 31.644 32.4569 31.8979C32.7108 32.1519 32.8535 32.4963 32.8535 32.8555C32.8535 33.2146 32.7108 33.5591 32.4569 33.813C32.2029 34.067 31.8585 34.2096 31.4993 34.2096ZM50.4577 34.2096H36.916C36.5569 34.2096 36.2124 34.067 35.9585 33.813C35.7045 33.5591 35.5618 33.2146 35.5618 32.8555C35.5618 32.4963 35.7045 32.1519 35.9585 31.8979C36.2124 31.644 36.5569 31.5013 36.916 31.5013H50.4577C50.8168 31.5013 51.1613 31.644 51.4152 31.8979C51.6692 32.1519 51.8118 32.4963 51.8118 32.8555C51.8118 33.2146 51.6692 33.5591 51.4152 33.813C51.1613 34.067 50.8168 34.2096 50.4577 34.2096ZM39.6243 39.6263H24.7285C24.3694 39.6263 24.0249 39.4836 23.771 39.2297C23.517 38.9757 23.3743 38.6313 23.3743 38.2721C23.3743 37.913 23.517 37.5686 23.771 37.3146C24.0249 37.0606 24.3694 36.918 24.7285 36.918H39.6243C39.9835 36.918 40.3279 37.0606 40.5819 37.3146C40.8358 37.5686 40.9785 37.913 40.9785 38.2721C40.9785 38.6313 40.8358 38.9757 40.5819 39.2297C40.3279 39.4836 39.9835 39.6263 39.6243 39.6263ZM50.4577 28.793H47.7493C47.3902 28.793 47.0458 28.6503 46.7918 28.3963C46.5379 28.1424 46.3952 27.7979 46.3952 27.4388C46.3952 27.0797 46.5379 26.7352 46.7918 26.4813C47.0458 26.2273 47.3902 26.0846 47.7493 26.0846H50.4577C50.8168 26.0846 51.1613 26.2273 51.4152 26.4813C51.6692 26.7352 51.8118 27.0797 51.8118 27.4388C51.8118 27.7979 51.6692 28.1424 51.4152 28.3963C51.1613 28.6503 50.8168 28.793 50.4577 28.793Z" fill="#028835"/>
<path d="M20.666 28.7943V35.4568C20.6653 37.7579 19.8484 39.9841 18.3607 41.7396C16.873 43.4951 14.8108 44.6661 12.541 45.0443C10.2712 44.6661 8.20908 43.4951 6.72136 41.7396C5.23365 39.9841 4.41678 37.7579 4.41602 35.4568V28.7943C5.28489 28.7943 6.13433 28.5371 6.85727 28.0551C7.58022 27.5732 8.14433 26.888 8.47852 26.0859H16.6035L16.7525 26.3703C17.1137 27.0992 17.6717 27.7125 18.3633 28.1408C19.0549 28.5692 19.8525 28.7955 20.666 28.7943Z" fill="#028835"/>
<path d="M11.1872 39.6266C10.4559 39.6266 10.4153 39.4235 7.51739 36.5256C7.2624 36.2706 7.11914 35.9248 7.11914 35.5641C7.11914 35.2035 7.2624 34.8577 7.51739 34.6027C7.77238 34.3477 8.11823 34.2044 8.47885 34.2044C8.83947 34.2044 9.18531 34.3477 9.44031 34.6027L11.1872 36.3631L15.6424 31.8943C15.7687 31.7681 15.9185 31.6679 16.0835 31.5996C16.2485 31.5313 16.4253 31.4961 16.6038 31.4961C16.7824 31.4961 16.9592 31.5313 17.1242 31.5996C17.2892 31.6679 17.439 31.7681 17.5653 31.8943C17.6916 32.0206 17.7917 32.1705 17.8601 32.3355C17.9284 32.5004 17.9636 32.6772 17.9636 32.8558C17.9636 33.0344 17.9284 33.2112 17.8601 33.3761C17.7917 33.5411 17.6916 33.691 17.5653 33.8173L12.1486 39.2339C12.0221 39.3594 11.872 39.4587 11.7071 39.5261C11.5421 39.5935 11.3654 39.6277 11.1872 39.6266Z" fill="#F8F9F9"/>
</svg>
