<svg width="179" height="55" viewBox="0 0 179 55" fill="none" xmlns="http://www.w3.org/2000/svg">
<path d="M11.2581 40.1889H11.2178L11.8532 42.7543L18.3693 43.8167L17.9389 39.3281C15.7278 39.7266 13.498 40.0138 11.2581 40.1889Z" fill="#028835"/>
<path d="M30.9856 36.0568C30.3132 36.2686 29.6407 36.4737 28.9884 36.6755L28.585 42.2097L33.4535 43.8202L35.649 34.4766C34.1024 35.0246 32.549 35.5592 30.9856 36.0568Z" fill="#028835"/>
<path d="M20.3057 38.8895L20.7428 42.7662L26.7444 42.2047L26.8587 37.2891C24.6956 37.8943 22.5113 38.4277 20.3057 38.8895Z" fill="#028835"/>
<path d="M39.3936 25.1328L44.0301 34.8934L47.9975 26.7702L39.3936 25.1328Z" fill="#028835"/>
<path d="M42.2842 26.1172C39.1741 27.8487 35.8959 29.4794 32.6211 30.9723C28.726 32.7638 24.724 34.3134 20.6381 35.6122C18.5938 36.2443 16.5261 36.8024 14.4415 37.226C12.3992 37.6857 10.3113 37.9113 8.21797 37.8985C7.73734 37.8836 7.25906 37.825 6.78901 37.7236C6.42092 37.6605 6.0743 37.5068 5.78034 37.2765C5.6989 37.2052 5.64235 37.1098 5.61896 37.0041C5.59188 36.8491 5.60343 36.6897 5.65258 36.5401C5.80399 36.1024 6.03165 35.6949 6.32503 35.3365C6.99598 34.5172 7.75604 33.7752 8.59118 33.1241C8.83326 32.9257 9.08543 32.7408 9.33759 32.5525L9.13922 31.7557C8.77946 31.9574 8.41634 32.1625 8.0633 32.3844C7.0842 32.9698 6.17404 33.6634 5.34998 34.4522C4.88396 34.8909 4.50121 35.4103 4.22026 35.9854C4.05743 36.3429 3.977 36.7324 3.98491 37.1252C4.00004 37.5695 4.15016 37.9988 4.41527 38.3557C4.87532 38.927 5.49063 39.3532 6.18717 39.583C6.76683 39.792 7.36446 39.9473 7.97253 40.047C10.248 40.3579 12.5517 40.4064 14.8382 40.1915C17.0909 40.0234 19.3167 39.7208 21.5291 39.3342C25.9443 38.5432 30.2997 37.449 34.5645 36.0593C36.6962 35.3869 38.811 34.6606 40.909 33.8806C42.3313 33.3561 43.7468 32.8114 45.1656 32.2264C44.2309 30.2124 43.0508 27.7546 42.2842 26.1172Z" fill="#028835"/>
<path d="M26.9793 31.8714L27.4769 10L18.3652 10.5682L19.8278 34.6822C22.2453 33.8484 24.6224 32.8901 26.9793 31.8714Z" fill="#333F4D"/>
<path d="M37.4531 26.7865L39.3965 18.5222L30.4462 16.8242L29.4375 30.7843C32.1273 29.5369 34.8406 28.2088 37.4531 26.7865Z" fill="#333F4D"/>
<path d="M15.4913 13.9084L9.02236 15.7442L8.82399 13.3906L4.09668 14.1135L5.69038 20.216L8.7164 19.3922L8.87106 21.2045L6.67552 21.8063L10.5085 37.2894L10.8447 37.2188C12.9293 36.7952 15.0004 36.2371 17.0447 35.605L17.5557 35.4402L15.4913 13.9084Z" fill="#333F4D"/>
<path d="M4.43945 24.4135L5.03793 26.7032L6.39628 26.33L6.21135 24.1445L4.43945 24.4135Z" fill="#333F4D"/>
<path d="M3.60432 18.2812L0 19.2025L1.70466 23.8054L4.43816 22.7564L3.60432 18.2812Z" fill="#333F4D"/>
<path d="M57.9621 38V16.19H62.7771V38H57.9621ZM66.6196 38V21.62H70.7896L71.1796 27.8L70.9996 26.555C71.1196 25.655 71.3546 24.805 71.7046 24.005C72.0546 23.195 72.5746 22.54 73.2646 22.04C73.9646 21.54 74.8896 21.29 76.0396 21.29C77.5296 21.29 78.7246 21.775 79.6246 22.745C80.5346 23.705 80.9896 25.175 80.9896 27.155V38H76.3246V28.895C76.3246 27.855 76.2346 27.065 76.0546 26.525C75.8746 25.975 75.6196 25.6 75.2896 25.4C74.9596 25.2 74.5696 25.1 74.1196 25.1C73.4796 25.1 72.9146 25.305 72.4246 25.715C71.9346 26.115 71.5596 26.59 71.2996 27.14V38H66.6196ZM90.573 38.255C89.163 38.255 87.948 38.05 86.928 37.64C85.918 37.23 85.133 36.61 84.573 35.78C84.013 34.94 83.703 33.875 83.643 32.585H88.188C88.278 33.385 88.533 33.975 88.953 34.355C89.383 34.735 89.958 34.925 90.678 34.925C91.038 34.925 91.383 34.885 91.713 34.805C92.043 34.715 92.313 34.565 92.523 34.355C92.733 34.135 92.838 33.835 92.838 33.455C92.838 33.145 92.758 32.895 92.598 32.705C92.448 32.505 92.223 32.34 91.923 32.21C91.633 32.07 91.278 31.945 90.858 31.835C90.438 31.715 89.963 31.575 89.433 31.415C88.493 31.135 87.613 30.795 86.793 30.395C85.983 29.995 85.328 29.46 84.828 28.79C84.328 28.12 84.078 27.24 84.078 26.15C84.078 24.52 84.673 23.31 85.863 22.52C87.063 21.73 88.633 21.335 90.573 21.335C91.713 21.335 92.738 21.49 93.648 21.8C94.558 22.11 95.308 22.66 95.898 23.45C96.498 24.24 96.883 25.355 97.053 26.795L92.538 26.765C92.448 26.125 92.293 25.65 92.073 25.34C91.853 25.02 91.603 24.81 91.323 24.71C91.043 24.6 90.753 24.545 90.453 24.545C90.113 24.545 89.803 24.6 89.523 24.71C89.253 24.82 89.038 24.98 88.878 25.19C88.718 25.4 88.638 25.665 88.638 25.985C88.638 26.365 88.758 26.69 88.998 26.96C89.238 27.23 89.603 27.47 90.093 27.68C90.583 27.88 91.208 28.085 91.968 28.295C92.468 28.425 93.028 28.585 93.648 28.775C94.278 28.965 94.878 29.23 95.448 29.57C96.028 29.91 96.503 30.37 96.873 30.95C97.253 31.53 97.443 32.28 97.443 33.2C97.443 34.8 96.828 36.045 95.598 36.935C94.368 37.815 92.693 38.255 90.573 38.255ZM104.9 38.33C103.42 38.33 102.27 37.84 101.45 36.86C100.63 35.87 100.22 34.38 100.22 32.39V21.62H104.9V30.83C104.9 31.84 104.98 32.61 105.14 33.14C105.31 33.67 105.545 34.035 105.845 34.235C106.145 34.425 106.505 34.52 106.925 34.52C107.545 34.52 108.105 34.32 108.605 33.92C109.115 33.51 109.495 33.03 109.745 32.48V21.62H114.425V38H110.285L109.865 31.82L110.045 33.065C109.925 33.965 109.685 34.815 109.325 35.615C108.975 36.415 108.445 37.07 107.735 37.58C107.035 38.08 106.09 38.33 104.9 38.33ZM125.198 38.285C123.478 38.285 122.038 37.93 120.878 37.22C119.728 36.5 118.858 35.5 118.268 34.22C117.688 32.93 117.398 31.435 117.398 29.735C117.398 27.995 117.698 26.495 118.298 25.235C118.908 23.975 119.788 23.01 120.938 22.34C122.098 21.66 123.493 21.32 125.123 21.32C126.723 21.32 128.048 21.595 129.098 22.145C130.148 22.695 130.923 23.45 131.423 24.41C131.923 25.36 132.143 26.44 132.083 27.65H127.568C127.548 27.19 127.483 26.795 127.373 26.465C127.263 26.125 127.103 25.85 126.893 25.64C126.693 25.42 126.443 25.26 126.143 25.16C125.853 25.05 125.513 24.995 125.123 24.995C124.073 24.995 123.293 25.38 122.783 26.15C122.273 26.91 122.018 28.08 122.018 29.66C122.018 31.38 122.303 32.615 122.873 33.365C123.443 34.105 124.248 34.5 125.288 34.55C125.698 34.57 126.088 34.505 126.458 34.355C126.828 34.205 127.128 33.955 127.358 33.605C127.588 33.245 127.698 32.775 127.688 32.195H132.143C132.173 33.405 131.918 34.47 131.378 35.39C130.838 36.3 130.043 37.01 128.993 37.52C127.953 38.03 126.688 38.285 125.198 38.285ZM141.927 38.225C140.337 38.225 138.957 37.9 137.787 37.25C136.617 36.6 135.707 35.645 135.057 34.385C134.417 33.115 134.097 31.56 134.097 29.72C134.097 27.98 134.437 26.48 135.117 25.22C135.797 23.96 136.732 22.995 137.922 22.325C139.112 21.645 140.467 21.305 141.987 21.305C143.627 21.305 145.027 21.645 146.187 22.325C147.357 22.995 148.252 23.96 148.872 25.22C149.502 26.48 149.817 27.98 149.817 29.72C149.817 31.56 149.472 33.115 148.782 34.385C148.092 35.645 147.152 36.6 145.962 37.25C144.772 37.9 143.427 38.225 141.927 38.225ZM141.987 34.37C142.897 34.37 143.657 34.035 144.267 33.365C144.877 32.685 145.182 31.47 145.182 29.72C145.182 28.09 144.862 26.925 144.222 26.225C143.592 25.515 142.832 25.16 141.942 25.16C141.032 25.16 140.272 25.515 139.662 26.225C139.052 26.925 138.747 28.09 138.747 29.72C138.747 31.4 139.067 32.595 139.707 33.305C140.347 34.015 141.107 34.37 141.987 34.37ZM152.752 38V21.62H156.922L157.312 27.8L157.132 26.555C157.252 25.655 157.472 24.805 157.792 24.005C158.122 23.195 158.617 22.54 159.277 22.04C159.947 21.54 160.852 21.29 161.992 21.29C163.282 21.29 164.352 21.68 165.202 22.46C166.062 23.24 166.587 24.45 166.777 26.09L166.837 26.885V38H162.157V28.895C162.157 27.855 162.067 27.065 161.887 26.525C161.717 25.975 161.482 25.6 161.182 25.4C160.882 25.2 160.532 25.1 160.132 25.1C159.492 25.1 158.942 25.305 158.482 25.715C158.032 26.115 157.682 26.59 157.432 27.14V38H152.752ZM171.547 38V28.895C171.547 27.855 171.457 27.065 171.277 26.525C171.107 25.975 170.872 25.6 170.572 25.4C170.272 25.2 169.922 25.1 169.522 25.1C168.882 25.1 168.337 25.305 167.887 25.715C167.437 26.115 167.087 26.59 166.837 27.14L166.732 27.8L166.657 26.645C166.747 25.795 166.942 24.96 167.242 24.14C167.552 23.32 168.032 22.64 168.682 22.1C169.342 21.56 170.237 21.29 171.367 21.29C172.817 21.29 173.987 21.775 174.877 22.745C175.777 23.705 176.227 25.175 176.227 27.155V38H171.547Z" fill="black"/>
</svg>
