<svg width="183" height="55" viewBox="0 0 183 55" fill="none" xmlns="http://www.w3.org/2000/svg">
<path d="M12.2586 40.7787H12.2183L12.8537 43.3441L19.3698 44.4066L18.9394 39.918C16.7283 40.3164 14.4985 40.6037 12.2586 40.7787V40.7787Z" fill="#028835"/>
<path d="M31.9861 36.6467C31.3136 36.8585 30.6412 37.0636 29.9889 37.2653L29.5854 42.7996L34.454 44.4101L36.6495 35.0664C35.1029 35.6145 33.5495 36.1491 31.9861 36.6467Z" fill="#028835"/>
<path d="M21.3071 39.4793L21.7442 43.356L27.7458 42.7945L27.8601 37.8789C25.6971 38.4841 23.5128 39.0176 21.3071 39.4793Z" fill="#028835"/>
<path d="M40.3945 25.7227L45.0311 35.4832L48.9985 27.3601L40.3945 25.7227Z" fill="#028835"/>
<path d="M43.2852 26.707C40.1751 28.4386 36.8969 30.0693 33.6221 31.5621C29.7269 33.3536 25.725 34.9032 21.6391 36.202C19.5948 36.8341 17.527 37.3922 15.4425 37.8159C13.4002 38.2756 11.3122 38.5012 9.21894 38.4883C8.73832 38.4734 8.26004 38.4149 7.78999 38.3135C7.4219 38.2503 7.07528 38.0967 6.78132 37.8663C6.69987 37.7951 6.64333 37.6996 6.61993 37.594C6.59286 37.4389 6.6044 37.2795 6.65355 37.13C6.80496 36.6922 7.03262 36.2847 7.326 35.9263C7.99696 35.1071 8.75702 34.365 9.59215 33.7139C9.83423 33.5156 10.0864 33.3307 10.3386 33.1424L10.1402 32.3455C9.78044 32.5472 9.41732 32.7523 9.06428 32.9743C8.08518 33.5596 7.17502 34.2532 6.35095 35.042C5.88493 35.4807 5.50219 36.0002 5.22124 36.5752C5.05841 36.9327 4.97798 37.3222 4.98588 37.715C5.00102 38.1594 5.15113 38.5886 5.41625 38.9456C5.8763 39.5169 6.4916 39.943 7.18815 40.1728C7.76781 40.3818 8.36543 40.5371 8.9735 40.6368C11.249 40.9477 13.5526 40.9962 15.8392 40.7814C18.0919 40.6133 20.3177 40.3107 22.5301 39.924C26.9452 39.133 31.3007 38.0389 35.5655 36.6492C37.6971 35.9767 39.812 35.2505 41.91 34.4704C43.3322 33.9459 44.7478 33.4013 46.1666 32.8162C45.2319 30.8022 44.0518 28.3444 43.2852 26.707Z" fill="#028835"/>
<path d="M27.9808 32.4612L28.4784 10.5898L19.3667 11.1581L20.8293 35.2721C23.2467 34.4382 25.6238 33.48 27.9808 32.4612Z" fill="white"/>
<path d="M38.4541 27.3764L40.3974 19.112L31.4471 17.4141L30.4385 31.3741C33.1283 30.1267 35.8416 28.7986 38.4541 27.3764Z" fill="white"/>
<path d="M16.4923 14.4983L10.0233 16.334L9.82497 13.9805L5.09766 14.7033L6.69136 20.8058L9.71738 19.9821L9.87204 21.7943L7.6765 22.3962L11.5095 37.8793L11.8457 37.8087C13.9303 37.385 16.0014 36.8269 18.0457 36.1948L18.5567 36.0301L16.4923 14.4983Z" fill="white"/>
<path d="M5.43994 25.0034L6.03842 27.293L7.39677 26.9198L7.21184 24.7344L5.43994 25.0034Z" fill="#333F4D"/>
<path d="M4.6053 18.8711L1.00098 19.7923L2.70563 24.3953L5.43914 23.3462L4.6053 18.8711Z" fill="white"/>
<path d="M61.965 38V16.19H66.78V38H61.965ZM70.6226 38V21.62H74.7926L75.1826 27.8L75.0026 26.555C75.1226 25.655 75.3576 24.805 75.7076 24.005C76.0576 23.195 76.5776 22.54 77.2676 22.04C77.9676 21.54 78.8926 21.29 80.0426 21.29C81.5326 21.29 82.7276 21.775 83.6276 22.745C84.5376 23.705 84.9926 25.175 84.9926 27.155V38H80.3276V28.895C80.3276 27.855 80.2376 27.065 80.0576 26.525C79.8776 25.975 79.6226 25.6 79.2926 25.4C78.9626 25.2 78.5726 25.1 78.1226 25.1C77.4826 25.1 76.9176 25.305 76.4276 25.715C75.9376 26.115 75.5626 26.59 75.3026 27.14V38H70.6226ZM94.5759 38.255C93.1659 38.255 91.9509 38.05 90.9309 37.64C89.9209 37.23 89.1359 36.61 88.5759 35.78C88.0159 34.94 87.7059 33.875 87.6459 32.585H92.1909C92.2809 33.385 92.5359 33.975 92.9559 34.355C93.3859 34.735 93.9609 34.925 94.6809 34.925C95.0409 34.925 95.3859 34.885 95.7159 34.805C96.0459 34.715 96.3159 34.565 96.5259 34.355C96.7359 34.135 96.8409 33.835 96.8409 33.455C96.8409 33.145 96.7609 32.895 96.6009 32.705C96.4509 32.505 96.2259 32.34 95.9259 32.21C95.6359 32.07 95.2809 31.945 94.8609 31.835C94.4409 31.715 93.9659 31.575 93.4359 31.415C92.4959 31.135 91.6159 30.795 90.7959 30.395C89.9859 29.995 89.3309 29.46 88.8309 28.79C88.3309 28.12 88.0809 27.24 88.0809 26.15C88.0809 24.52 88.6759 23.31 89.8659 22.52C91.0659 21.73 92.6359 21.335 94.5759 21.335C95.7159 21.335 96.7409 21.49 97.6509 21.8C98.5609 22.11 99.3109 22.66 99.9009 23.45C100.501 24.24 100.886 25.355 101.056 26.795L96.5409 26.765C96.4509 26.125 96.2959 25.65 96.0759 25.34C95.8559 25.02 95.6059 24.81 95.3259 24.71C95.0459 24.6 94.7559 24.545 94.4559 24.545C94.1159 24.545 93.8059 24.6 93.5259 24.71C93.2559 24.82 93.0409 24.98 92.8809 25.19C92.7209 25.4 92.6409 25.665 92.6409 25.985C92.6409 26.365 92.7609 26.69 93.0009 26.96C93.2409 27.23 93.6059 27.47 94.0959 27.68C94.5859 27.88 95.2109 28.085 95.9709 28.295C96.4709 28.425 97.0309 28.585 97.6509 28.775C98.2809 28.965 98.8809 29.23 99.4509 29.57C100.031 29.91 100.506 30.37 100.876 30.95C101.256 31.53 101.446 32.28 101.446 33.2C101.446 34.8 100.831 36.045 99.6009 36.935C98.3709 37.815 96.6959 38.255 94.5759 38.255ZM108.903 38.33C107.423 38.33 106.273 37.84 105.453 36.86C104.633 35.87 104.223 34.38 104.223 32.39V21.62H108.903V30.83C108.903 31.84 108.983 32.61 109.143 33.14C109.313 33.67 109.548 34.035 109.848 34.235C110.148 34.425 110.508 34.52 110.928 34.52C111.548 34.52 112.108 34.32 112.608 33.92C113.118 33.51 113.498 33.03 113.748 32.48V21.62H118.428V38H114.288L113.868 31.82L114.048 33.065C113.928 33.965 113.688 34.815 113.328 35.615C112.978 36.415 112.448 37.07 111.738 37.58C111.038 38.08 110.093 38.33 108.903 38.33ZM129.201 38.285C127.481 38.285 126.041 37.93 124.881 37.22C123.731 36.5 122.861 35.5 122.271 34.22C121.691 32.93 121.401 31.435 121.401 29.735C121.401 27.995 121.701 26.495 122.301 25.235C122.911 23.975 123.791 23.01 124.941 22.34C126.101 21.66 127.496 21.32 129.126 21.32C130.726 21.32 132.051 21.595 133.101 22.145C134.151 22.695 134.926 23.45 135.426 24.41C135.926 25.36 136.146 26.44 136.086 27.65H131.571C131.551 27.19 131.486 26.795 131.376 26.465C131.266 26.125 131.106 25.85 130.896 25.64C130.696 25.42 130.446 25.26 130.146 25.16C129.856 25.05 129.516 24.995 129.126 24.995C128.076 24.995 127.296 25.38 126.786 26.15C126.276 26.91 126.021 28.08 126.021 29.66C126.021 31.38 126.306 32.615 126.876 33.365C127.446 34.105 128.251 34.5 129.291 34.55C129.701 34.57 130.091 34.505 130.461 34.355C130.831 34.205 131.131 33.955 131.361 33.605C131.591 33.245 131.701 32.775 131.691 32.195H136.146C136.176 33.405 135.921 34.47 135.381 35.39C134.841 36.3 134.046 37.01 132.996 37.52C131.956 38.03 130.691 38.285 129.201 38.285ZM145.93 38.225C144.34 38.225 142.96 37.9 141.79 37.25C140.62 36.6 139.71 35.645 139.06 34.385C138.42 33.115 138.1 31.56 138.1 29.72C138.1 27.98 138.44 26.48 139.12 25.22C139.8 23.96 140.735 22.995 141.925 22.325C143.115 21.645 144.47 21.305 145.99 21.305C147.63 21.305 149.03 21.645 150.19 22.325C151.36 22.995 152.255 23.96 152.875 25.22C153.505 26.48 153.82 27.98 153.82 29.72C153.82 31.56 153.475 33.115 152.785 34.385C152.095 35.645 151.155 36.6 149.965 37.25C148.775 37.9 147.43 38.225 145.93 38.225ZM145.99 34.37C146.9 34.37 147.66 34.035 148.27 33.365C148.88 32.685 149.185 31.47 149.185 29.72C149.185 28.09 148.865 26.925 148.225 26.225C147.595 25.515 146.835 25.16 145.945 25.16C145.035 25.16 144.275 25.515 143.665 26.225C143.055 26.925 142.75 28.09 142.75 29.72C142.75 31.4 143.07 32.595 143.71 33.305C144.35 34.015 145.11 34.37 145.99 34.37ZM156.755 38V21.62H160.925L161.315 27.8L161.135 26.555C161.255 25.655 161.475 24.805 161.795 24.005C162.125 23.195 162.62 22.54 163.28 22.04C163.95 21.54 164.855 21.29 165.995 21.29C167.285 21.29 168.355 21.68 169.205 22.46C170.065 23.24 170.59 24.45 170.78 26.09L170.84 26.885V38H166.16V28.895C166.16 27.855 166.07 27.065 165.89 26.525C165.72 25.975 165.485 25.6 165.185 25.4C164.885 25.2 164.535 25.1 164.135 25.1C163.495 25.1 162.945 25.305 162.485 25.715C162.035 26.115 161.685 26.59 161.435 27.14V38H156.755ZM175.55 38V28.895C175.55 27.855 175.46 27.065 175.28 26.525C175.11 25.975 174.875 25.6 174.575 25.4C174.275 25.2 173.925 25.1 173.525 25.1C172.885 25.1 172.34 25.305 171.89 25.715C171.44 26.115 171.09 26.59 170.84 27.14L170.735 27.8L170.66 26.645C170.75 25.795 170.945 24.96 171.245 24.14C171.555 23.32 172.035 22.64 172.685 22.1C173.345 21.56 174.24 21.29 175.37 21.29C176.82 21.29 177.99 21.775 178.88 22.745C179.78 23.705 180.23 25.175 180.23 27.155V38H175.55Z" fill="white"/>
</svg>
