<svg width="182" height="55" viewBox="0 0 182 55" fill="none" xmlns="http://www.w3.org/2000/svg">
<path d="M11.2571 40.7787H11.2168L11.8523 43.3441L18.3683 44.4066L17.9379 39.918C15.7268 40.3164 13.4971 40.6037 11.2571 40.7787Z" fill="white"/>
<path d="M30.9846 36.6467C30.3122 36.8585 29.6397 37.0636 28.9875 37.2653L28.584 42.7996L33.4525 44.4101L35.6481 35.0664C34.1014 35.6145 32.5481 36.1491 30.9846 36.6467Z" fill="white"/>
<path d="M20.3066 39.4793L20.7437 43.356L26.7453 42.7945L26.8597 37.8789C24.6966 38.4841 22.5123 39.0176 20.3066 39.4793Z" fill="white"/>
<path d="M39.3936 25.7227L44.0301 35.4832L47.9975 27.3601L39.3936 25.7227Z" fill="white"/>
<path d="M42.2842 26.707C39.1741 28.4386 35.8959 30.0693 32.6211 31.5621C28.726 33.3536 24.724 34.9032 20.6381 36.202C18.5938 36.8341 16.5261 37.3922 14.4415 37.8159C12.3992 38.2756 10.3113 38.5012 8.21797 38.4883C7.73734 38.4734 7.25906 38.4149 6.78901 38.3135C6.42092 38.2503 6.0743 38.0967 5.78034 37.8663C5.6989 37.7951 5.64235 37.6996 5.61896 37.594C5.59188 37.4389 5.60343 37.2795 5.65258 37.13C5.80399 36.6922 6.03165 36.2847 6.32503 35.9263C6.99598 35.107 7.75604 34.365 8.59118 33.7139C8.83326 33.5156 9.08543 33.3307 9.33759 33.1424L9.13922 32.3455C8.77946 32.5472 8.41634 32.7523 8.0633 32.9743C7.0842 33.5596 6.17404 34.2532 5.34998 35.042C4.88396 35.4807 4.50121 36.0002 4.22026 36.5752C4.05743 36.9327 3.977 37.3222 3.98491 37.715C4.00004 38.1594 4.15016 38.5886 4.41527 38.9456C4.87532 39.5169 5.49063 39.943 6.18717 40.1728C6.76683 40.3818 7.36446 40.5371 7.97253 40.6368C10.248 40.9477 12.5517 40.9962 14.8382 40.7814C17.0909 40.6133 19.3167 40.3107 21.5291 39.924C25.9443 39.133 30.2997 38.0389 34.5645 36.6492C36.6962 35.9767 38.811 35.2505 40.909 34.4704C42.3313 33.9459 43.7468 33.4013 45.1656 32.8162C44.2309 30.8022 43.0508 28.3444 42.2842 26.707Z" fill="white"/>
<path d="M26.9793 32.4612L27.4769 10.5898L18.3652 11.1581L19.8278 35.2721C22.2453 34.4382 24.6224 33.48 26.9793 32.4612Z" fill="white"/>
<path d="M37.4531 27.3764L39.3965 19.112L30.4462 17.4141L29.4375 31.3741C32.1273 30.1267 34.8406 28.7986 37.4531 27.3764Z" fill="white"/>
<path d="M15.4913 14.4983L9.02237 16.334L8.82399 13.9805L4.09668 14.7033L5.69038 20.8058L8.7164 19.9821L8.87106 21.7943L6.67552 22.3962L10.5085 37.8793L10.8447 37.8087C12.9293 37.385 15.0004 36.8269 17.0447 36.1948L17.5557 36.0301L15.4913 14.4983Z" fill="white"/>
<path d="M4.43945 25.0034L5.03793 27.293L6.39628 26.9198L6.21135 24.7344L4.43945 25.0034Z" fill="white"/>
<path d="M3.60432 18.8711L0 19.7923L1.70466 24.3953L4.43816 23.3462L3.60432 18.8711Z" fill="white"/>
<path d="M60.964 38V16.19H65.779V38H60.964ZM69.6216 38V21.62H73.7916L74.1816 27.8L74.0016 26.555C74.1216 25.655 74.3566 24.805 74.7066 24.005C75.0566 23.195 75.5766 22.54 76.2666 22.04C76.9666 21.54 77.8916 21.29 79.0416 21.29C80.5316 21.29 81.7266 21.775 82.6266 22.745C83.5366 23.705 83.9916 25.175 83.9916 27.155V38H79.3266V28.895C79.3266 27.855 79.2366 27.065 79.0566 26.525C78.8766 25.975 78.6216 25.6 78.2916 25.4C77.9616 25.2 77.5716 25.1 77.1216 25.1C76.4816 25.1 75.9166 25.305 75.4266 25.715C74.9366 26.115 74.5616 26.59 74.3016 27.14V38H69.6216ZM93.575 38.255C92.165 38.255 90.95 38.05 89.93 37.64C88.92 37.23 88.135 36.61 87.575 35.78C87.015 34.94 86.705 33.875 86.645 32.585H91.19C91.28 33.385 91.535 33.975 91.955 34.355C92.385 34.735 92.96 34.925 93.68 34.925C94.04 34.925 94.385 34.885 94.715 34.805C95.045 34.715 95.315 34.565 95.525 34.355C95.735 34.135 95.84 33.835 95.84 33.455C95.84 33.145 95.76 32.895 95.6 32.705C95.45 32.505 95.225 32.34 94.925 32.21C94.635 32.07 94.28 31.945 93.86 31.835C93.44 31.715 92.965 31.575 92.435 31.415C91.495 31.135 90.615 30.795 89.795 30.395C88.985 29.995 88.33 29.46 87.83 28.79C87.33 28.12 87.08 27.24 87.08 26.15C87.08 24.52 87.675 23.31 88.865 22.52C90.065 21.73 91.635 21.335 93.575 21.335C94.715 21.335 95.74 21.49 96.65 21.8C97.56 22.11 98.31 22.66 98.9 23.45C99.5 24.24 99.885 25.355 100.055 26.795L95.54 26.765C95.45 26.125 95.295 25.65 95.075 25.34C94.855 25.02 94.605 24.81 94.325 24.71C94.045 24.6 93.755 24.545 93.455 24.545C93.115 24.545 92.805 24.6 92.525 24.71C92.255 24.82 92.04 24.98 91.88 25.19C91.72 25.4 91.64 25.665 91.64 25.985C91.64 26.365 91.76 26.69 92 26.96C92.24 27.23 92.605 27.47 93.095 27.68C93.585 27.88 94.21 28.085 94.97 28.295C95.47 28.425 96.03 28.585 96.65 28.775C97.28 28.965 97.88 29.23 98.45 29.57C99.03 29.91 99.505 30.37 99.875 30.95C100.255 31.53 100.445 32.28 100.445 33.2C100.445 34.8 99.83 36.045 98.6 36.935C97.37 37.815 95.695 38.255 93.575 38.255ZM107.902 38.33C106.422 38.33 105.272 37.84 104.452 36.86C103.632 35.87 103.222 34.38 103.222 32.39V21.62H107.902V30.83C107.902 31.84 107.982 32.61 108.142 33.14C108.312 33.67 108.547 34.035 108.847 34.235C109.147 34.425 109.507 34.52 109.927 34.52C110.547 34.52 111.107 34.32 111.607 33.92C112.117 33.51 112.497 33.03 112.747 32.48V21.62H117.427V38H113.287L112.867 31.82L113.047 33.065C112.927 33.965 112.687 34.815 112.327 35.615C111.977 36.415 111.447 37.07 110.737 37.58C110.037 38.08 109.092 38.33 107.902 38.33ZM128.2 38.285C126.48 38.285 125.04 37.93 123.88 37.22C122.73 36.5 121.86 35.5 121.27 34.22C120.69 32.93 120.4 31.435 120.4 29.735C120.4 27.995 120.7 26.495 121.3 25.235C121.91 23.975 122.79 23.01 123.94 22.34C125.1 21.66 126.495 21.32 128.125 21.32C129.725 21.32 131.05 21.595 132.1 22.145C133.15 22.695 133.925 23.45 134.425 24.41C134.925 25.36 135.145 26.44 135.085 27.65H130.57C130.55 27.19 130.485 26.795 130.375 26.465C130.265 26.125 130.105 25.85 129.895 25.64C129.695 25.42 129.445 25.26 129.145 25.16C128.855 25.05 128.515 24.995 128.125 24.995C127.075 24.995 126.295 25.38 125.785 26.15C125.275 26.91 125.02 28.08 125.02 29.66C125.02 31.38 125.305 32.615 125.875 33.365C126.445 34.105 127.25 34.5 128.29 34.55C128.7 34.57 129.09 34.505 129.46 34.355C129.83 34.205 130.13 33.955 130.36 33.605C130.59 33.245 130.7 32.775 130.69 32.195H135.145C135.175 33.405 134.92 34.47 134.38 35.39C133.84 36.3 133.045 37.01 131.995 37.52C130.955 38.03 129.69 38.285 128.2 38.285ZM144.929 38.225C143.339 38.225 141.959 37.9 140.789 37.25C139.619 36.6 138.709 35.645 138.059 34.385C137.419 33.115 137.099 31.56 137.099 29.72C137.099 27.98 137.439 26.48 138.119 25.22C138.799 23.96 139.734 22.995 140.924 22.325C142.114 21.645 143.469 21.305 144.989 21.305C146.629 21.305 148.029 21.645 149.189 22.325C150.359 22.995 151.254 23.96 151.874 25.22C152.504 26.48 152.819 27.98 152.819 29.72C152.819 31.56 152.474 33.115 151.784 34.385C151.094 35.645 150.154 36.6 148.964 37.25C147.774 37.9 146.429 38.225 144.929 38.225ZM144.989 34.37C145.899 34.37 146.659 34.035 147.269 33.365C147.879 32.685 148.184 31.47 148.184 29.72C148.184 28.09 147.864 26.925 147.224 26.225C146.594 25.515 145.834 25.16 144.944 25.16C144.034 25.16 143.274 25.515 142.664 26.225C142.054 26.925 141.749 28.09 141.749 29.72C141.749 31.4 142.069 32.595 142.709 33.305C143.349 34.015 144.109 34.37 144.989 34.37ZM155.754 38V21.62H159.924L160.314 27.8L160.134 26.555C160.254 25.655 160.474 24.805 160.794 24.005C161.124 23.195 161.619 22.54 162.279 22.04C162.949 21.54 163.854 21.29 164.994 21.29C166.284 21.29 167.354 21.68 168.204 22.46C169.064 23.24 169.589 24.45 169.779 26.09L169.839 26.885V38H165.159V28.895C165.159 27.855 165.069 27.065 164.889 26.525C164.719 25.975 164.484 25.6 164.184 25.4C163.884 25.2 163.534 25.1 163.134 25.1C162.494 25.1 161.944 25.305 161.484 25.715C161.034 26.115 160.684 26.59 160.434 27.14V38H155.754ZM174.549 38V28.895C174.549 27.855 174.459 27.065 174.279 26.525C174.109 25.975 173.874 25.6 173.574 25.4C173.274 25.2 172.924 25.1 172.524 25.1C171.884 25.1 171.339 25.305 170.889 25.715C170.439 26.115 170.089 26.59 169.839 27.14L169.734 27.8L169.659 26.645C169.749 25.795 169.944 24.96 170.244 24.14C170.554 23.32 171.034 22.64 171.684 22.1C172.344 21.56 173.239 21.29 174.369 21.29C175.819 21.29 176.989 21.775 177.879 22.745C178.779 23.705 179.229 25.175 179.229 27.155V38H174.549Z" fill="white"/>
</svg>
