<svg width="40" height="32" viewBox="0 0 40 32" fill="none" xmlns="http://www.w3.org/2000/svg">
<path d="M15.2344 14.8281C15.8805 14.8281 16.4062 15.3539 16.4062 16C16.4062 16.6461 15.8805 17.1719 15.2344 17.1719C14.5883 17.1719 14.0625 16.6461 14.0625 16C14.0625 15.3539 14.5883 14.8281 15.2344 14.8281Z" fill="white"/>
<path d="M16.4062 10.2578V12.6859C16.0398 12.5555 15.6453 12.4844 15.2344 12.4844C13.2961 12.4844 11.7188 14.0617 11.7188 16C11.7188 17.9383 13.2961 19.5156 15.2344 19.5156C15.6453 19.5156 16.0398 19.4445 16.4062 19.3141V21.7422C16.0227 21.8203 15.6305 21.8594 15.2344 21.8594C12.0039 21.8594 9.375 19.2305 9.375 16C9.375 12.7695 12.0039 10.1406 15.2344 10.1406C15.6305 10.1406 16.0227 10.1797 16.4062 10.2578Z" fill="white"/>
<path d="M7.03125 16C7.03125 20.5234 10.7109 24.2031 15.2344 24.2031C15.6289 24.2031 16.0203 24.1758 16.4062 24.1195V31.2344H12.8906C12.2437 31.2344 11.7188 30.7094 11.7188 30.0625V28.4031C10.7602 28.1305 9.83594 27.7445 8.95547 27.25L7.77656 28.4297C7.31875 28.8875 6.57734 28.8875 6.11953 28.4297L2.80469 25.1148C2.34672 24.6569 2.34852 23.914 2.80469 23.4578L3.98438 22.2781C3.48906 21.3984 3.10391 20.4742 2.83125 19.5156H1.17188C0.525 19.5156 0 18.9906 0 18.3438V13.6562C0 13.0094 0.525 12.4844 1.17188 12.4844H2.83125C3.10391 11.5258 3.48906 10.6016 3.98438 9.72109L2.80469 8.54219C2.34852 8.08602 2.34672 7.34313 2.80469 6.88516L6.11953 3.57031C6.57734 3.1125 7.31875 3.1125 7.77656 3.57031L8.95625 4.75C9.83594 4.25469 10.7602 3.86953 11.7188 3.59687V1.9375C11.7188 1.29063 12.2437 0.765625 12.8906 0.765625H16.4062V7.88047C16.0203 7.82422 15.6289 7.79688 15.2344 7.79688C10.7109 7.79688 7.03125 11.4766 7.03125 16Z" fill="white"/>
<path d="M32.9688 1.45156V7.79688H39.3141L32.9688 1.45156ZM22.2656 7.79688H27.1094C27.7563 7.79688 28.2812 8.32188 28.2812 8.96875C28.2812 9.61563 27.7563 10.1406 27.1094 10.1406H22.2656C21.6188 10.1406 21.0938 9.61563 21.0938 8.96875C21.0938 8.32188 21.6188 7.79688 22.2656 7.79688ZM34.1406 24.2031H22.2656C21.6188 24.2031 21.0938 23.6781 21.0938 23.0312C21.0938 22.3844 21.6188 21.8594 22.2656 21.8594H34.1406C34.7875 21.8594 35.3125 22.3844 35.3125 23.0312C35.3125 23.6781 34.7875 24.2031 34.1406 24.2031ZM34.1406 19.5156H22.2656C21.6188 19.5156 21.0938 18.9906 21.0938 18.3438C21.0938 17.6969 21.6188 17.1719 22.2656 17.1719H34.1406C34.7875 17.1719 35.3125 17.6969 35.3125 18.3438C35.3125 18.9906 34.7875 19.5156 34.1406 19.5156ZM34.1406 14.8281H22.2656C21.6188 14.8281 21.0938 14.3031 21.0938 13.6562C21.0938 13.0094 21.6188 12.4844 22.2656 12.4844H34.1406C34.7875 12.4844 35.3125 13.0094 35.3125 13.6562C35.3125 14.3031 34.7875 14.8281 34.1406 14.8281ZM31.7969 10.1406C31.15 10.1406 30.625 9.61563 30.625 8.96875V0.765625H18.75V31.2344H38.8281C39.475 31.2344 40 30.7094 40 30.0625V10.1406H31.7969Z" fill="white"/>
</svg>
