<svg width="30" height="30" viewBox="0 0 30 30" fill="none" xmlns="http://www.w3.org/2000/svg">
<path d="M26.25 8.125V28.75H6.25V3.75H21.875L26.25 8.125Z" fill="#F8F9F9"/>
<path opacity="0.4" d="M26.25 8.125H23.125C22.7935 8.125 22.4755 7.9933 22.2411 7.75888C22.0067 7.52446 21.875 7.20652 21.875 6.875V3.75L26.25 8.125Z" fill="#028835"/>
<path opacity="0.4" d="M28.75 1.25V26.25H26.25V8.125L21.875 3.75H8.75V1.25H28.75Z" fill="#028835"/>
<path d="M26.25 8.74973H23.125C22.6277 8.74973 22.1508 8.55218 21.7992 8.20055C21.4476 7.84892 21.25 7.37201 21.25 6.87473V3.74973C21.2493 3.62559 21.2856 3.50405 21.3542 3.4006C21.4228 3.29715 21.5207 3.21648 21.6353 3.16887C21.75 3.12127 21.8762 3.10889 21.9979 3.1333C22.1197 3.15772 22.2313 3.21784 22.3188 3.30598L26.6938 7.68098C26.7819 7.7684 26.842 7.88009 26.8664 8.0018C26.8909 8.12352 26.8785 8.24975 26.8309 8.3644C26.7833 8.47906 26.7026 8.57694 26.5991 8.64556C26.4957 8.71419 26.3742 8.75045 26.25 8.74973ZM22.5 5.25598V6.87473C22.5 7.04049 22.5659 7.19946 22.6831 7.31667C22.8003 7.43388 22.9593 7.49973 23.125 7.49973H24.7438L22.5 5.25598Z" fill="#004C3F"/>
<path d="M26.25 29.375H6.25C6.08424 29.375 5.92527 29.3092 5.80806 29.192C5.69085 29.0747 5.625 28.9158 5.625 28.75V3.75001C5.625 3.58425 5.69085 3.42528 5.80806 3.30807C5.92527 3.19086 6.08424 3.12501 6.25 3.12501H21.875C21.9573 3.12453 22.0388 3.1403 22.1149 3.1714C22.1911 3.20251 22.2603 3.24833 22.3187 3.30626L26.6937 7.68126C26.7517 7.73966 26.7975 7.80892 26.8286 7.88507C26.8597 7.96122 26.8755 8.04276 26.875 8.12501V28.75C26.875 28.9158 26.8092 29.0747 26.6919 29.192C26.5747 29.3092 26.4158 29.375 26.25 29.375ZM6.875 28.125H25.625V8.38126L21.6187 4.37501H6.875V28.125Z" fill="#004C3F"/>
<path opacity="0.4" d="M1.25 23.75H13.75V26.25H1.25V23.75ZM1.25 26.25H13.75V28.75H1.25V26.25Z" fill="#028835"/>
<path d="M28.75 26.875H26.25C26.0842 26.875 25.9253 26.8092 25.8081 26.6919C25.6908 26.5747 25.625 26.4158 25.625 26.25C25.625 26.0842 25.6908 25.9253 25.8081 25.8081C25.9253 25.6908 26.0842 25.625 26.25 25.625H28.125V1.875H9.375V3.75C9.375 3.91576 9.30915 4.07473 9.19194 4.19194C9.07473 4.30915 8.91576 4.375 8.75 4.375C8.58424 4.375 8.42527 4.30915 8.30806 4.19194C8.19085 4.07473 8.125 3.91576 8.125 3.75V1.25C8.125 1.08424 8.19085 0.925268 8.30806 0.808058C8.42527 0.690848 8.58424 0.625 8.75 0.625H28.75C28.9158 0.625 29.0747 0.690848 29.1919 0.808058C29.3092 0.925268 29.375 1.08424 29.375 1.25V26.25C29.375 26.4158 29.3092 26.5747 29.1919 26.6919C29.0747 26.8092 28.9158 26.875 28.75 26.875ZM13.75 26.875H1.25C1.08424 26.875 0.925268 26.8092 0.808058 26.6919C0.690848 26.5747 0.625 26.4158 0.625 26.25V23.75C0.625 23.5842 0.690848 23.4253 0.808058 23.3081C0.925268 23.1908 1.08424 23.125 1.25 23.125H13.75C13.9158 23.125 14.0747 23.1908 14.1919 23.3081C14.3092 23.4253 14.375 23.5842 14.375 23.75V26.25C14.375 26.4158 14.3092 26.5747 14.1919 26.6919C14.0747 26.8092 13.9158 26.875 13.75 26.875ZM1.875 25.625H13.125V24.375H1.875V25.625Z" fill="#004C3F"/>
<path d="M13.75 29.375H1.25C1.08424 29.375 0.925268 29.3092 0.808058 29.1919C0.690848 29.0747 0.625 28.9158 0.625 28.75V26.25C0.625 26.0842 0.690848 25.9253 0.808058 25.8081C0.925268 25.6908 1.08424 25.625 1.25 25.625H13.75C13.9158 25.625 14.0747 25.6908 14.1919 25.8081C14.3092 25.9253 14.375 26.0842 14.375 26.25V28.75C14.375 28.9158 14.3092 29.0747 14.1919 29.1919C14.0747 29.3092 13.9158 29.375 13.75 29.375ZM1.875 28.125H13.125V26.875H1.875V28.125Z" fill="#004C3F"/>
<path d="M6.25 23.125H8.75C8.91576 23.125 9.07473 23.1908 9.19194 23.3081C9.30915 23.4253 9.375 23.5842 9.375 23.75V28.75H5.625V23.75C5.625 23.5842 5.69085 23.4253 5.80806 23.3081C5.92527 23.1908 6.08424 23.125 6.25 23.125Z" fill="#F8F9F9"/>
<path d="M9.375 29.375H5.625C5.45924 29.375 5.30027 29.3092 5.18306 29.1919C5.06585 29.0747 5 28.9158 5 28.75V23.75C5 23.4185 5.1317 23.1005 5.36612 22.8661C5.60054 22.6317 5.91848 22.5 6.25 22.5H8.75C9.08152 22.5 9.39946 22.6317 9.63388 22.8661C9.8683 23.1005 10 23.4185 10 23.75V28.75C10 28.9158 9.93415 29.0747 9.81694 29.1919C9.69973 29.3092 9.54076 29.375 9.375 29.375ZM6.25 28.125H8.75V23.75H6.25V28.125Z" fill="#004C3F"/>
<path opacity="0.4" d="M16.2497 26.875C16.1503 26.8753 16.0523 26.8518 15.9638 26.8066C15.8753 26.7614 15.7988 26.6958 15.7408 26.6151C15.6827 26.5344 15.6447 26.4411 15.63 26.3428C15.6152 26.2445 15.6241 26.1442 15.6559 26.05C16.0747 24.8 17.2122 21.875 18.7497 21.875C19.9997 21.875 20.2247 23.2937 20.1497 24.5375C20.5264 24.3558 20.9584 24.3251 21.357 24.4518C21.7556 24.5785 22.0907 24.8529 22.2934 25.2187C22.7559 25.036 23.2539 24.9612 23.7497 25C23.9154 25 24.0744 25.0658 24.1916 25.1831C24.3088 25.3003 24.3747 25.4592 24.3747 25.625C24.3747 25.7908 24.3088 25.9497 24.1916 26.0669C24.0744 26.1842 23.9154 26.25 23.7497 26.25H23.3809C23.1832 26.2493 22.9873 26.2882 22.8048 26.3644C22.6223 26.4406 22.4569 26.5526 22.3184 26.6937C22.231 26.7819 22.1193 26.842 21.9976 26.8664C21.8759 26.8908 21.7496 26.8785 21.635 26.8309C21.5203 26.7833 21.4225 26.7026 21.3538 26.5991C21.2852 26.4957 21.2489 26.3741 21.2497 26.25V26.0125C21.2472 25.9479 21.229 25.8849 21.1964 25.8291C21.1639 25.7733 21.1182 25.7263 21.0632 25.6923C21.0082 25.6584 20.9457 25.6384 20.8812 25.6343C20.8168 25.6302 20.7523 25.642 20.6934 25.6687L19.6559 26.1812C19.5509 26.2375 19.4319 26.2625 19.3131 26.2534C19.1943 26.2443 19.0806 26.2014 18.9854 26.1298C18.8902 26.0582 18.8174 25.9609 18.7756 25.8493C18.7338 25.7377 18.7248 25.6165 18.7497 25.5C18.9497 24.4875 18.9372 23.3062 18.7497 23.1125C18.3997 23.1125 17.4684 24.6062 16.8747 26.45C16.8312 26.5794 16.7465 26.6909 16.6337 26.7677C16.5208 26.8444 16.386 26.8821 16.2497 26.875Z" fill="#028835"/>
<path opacity="0.4" d="M18.125 6.25H9.375C9.02982 6.25 8.75 6.52982 8.75 6.875V8.125C8.75 8.47018 9.02982 8.75 9.375 8.75H18.125C18.4702 8.75 18.75 8.47018 18.75 8.125V6.875C18.75 6.52982 18.4702 6.25 18.125 6.25Z" fill="#028835"/>
<path opacity="0.4" d="M23.75 11.25H8.75C8.58424 11.25 8.42527 11.1842 8.30806 11.0669C8.19085 10.9497 8.125 10.7908 8.125 10.625C8.125 10.4592 8.19085 10.3003 8.30806 10.1831C8.42527 10.0658 8.58424 10 8.75 10H23.75C23.9158 10 24.0747 10.0658 24.1919 10.1831C24.3092 10.3003 24.375 10.4592 24.375 10.625C24.375 10.7908 24.3092 10.9497 24.1919 11.0669C24.0747 11.1842 23.9158 11.25 23.75 11.25ZM20 13.75H11.875C11.7092 13.75 11.5503 13.6842 11.4331 13.5669C11.3158 13.4497 11.25 13.2908 11.25 13.125C11.25 12.9592 11.3158 12.8003 11.4331 12.6831C11.5503 12.5658 11.7092 12.5 11.875 12.5H20C20.1658 12.5 20.3247 12.5658 20.4419 12.6831C20.5592 12.8003 20.625 12.9592 20.625 13.125C20.625 13.2908 20.5592 13.4497 20.4419 13.5669C20.3247 13.6842 20.1658 13.75 20 13.75ZM15 16.25H11.875C11.7092 16.25 11.5503 16.1842 11.4331 16.0669C11.3158 15.9497 11.25 15.7908 11.25 15.625C11.25 15.4592 11.3158 15.3003 11.4331 15.1831C11.5503 15.0658 11.7092 15 11.875 15H15C15.1658 15 15.3247 15.0658 15.4419 15.1831C15.5592 15.3003 15.625 15.4592 15.625 15.625C15.625 15.7908 15.5592 15.9497 15.4419 16.0669C15.3247 16.1842 15.1658 16.25 15 16.25ZM23.75 16.25H17.5C17.3342 16.25 17.1753 16.1842 17.0581 16.0669C16.9408 15.9497 16.875 15.7908 16.875 15.625C16.875 15.4592 16.9408 15.3003 17.0581 15.1831C17.1753 15.0658 17.3342 15 17.5 15H23.75C23.9158 15 24.0747 15.0658 24.1919 15.1831C24.3092 15.3003 24.375 15.4592 24.375 15.625C24.375 15.7908 24.3092 15.9497 24.1919 16.0669C24.0747 16.1842 23.9158 16.25 23.75 16.25ZM18.75 18.75H11.875C11.7092 18.75 11.5503 18.6842 11.4331 18.5669C11.3158 18.4497 11.25 18.2908 11.25 18.125C11.25 17.9592 11.3158 17.8003 11.4331 17.6831C11.5503 17.5658 11.7092 17.5 11.875 17.5H18.75C18.9158 17.5 19.0747 17.5658 19.1919 17.6831C19.3092 17.8003 19.375 17.9592 19.375 18.125C19.375 18.2908 19.3092 18.4497 19.1919 18.5669C19.0747 18.6842 18.9158 18.75 18.75 18.75ZM23.75 13.75H22.5C22.3342 13.75 22.1753 13.6842 22.0581 13.5669C21.9408 13.4497 21.875 13.2908 21.875 13.125C21.875 12.9592 21.9408 12.8003 22.0581 12.6831C22.1753 12.5658 22.3342 12.5 22.5 12.5H23.75C23.9158 12.5 24.0747 12.5658 24.1919 12.6831C24.3092 12.8003 24.375 12.9592 24.375 13.125C24.375 13.2908 24.3092 13.4497 24.1919 13.5669C24.0747 13.6842 23.9158 13.75 23.75 13.75Z" fill="#028835"/>
<path d="M10 13.75V16.825C9.99965 17.887 9.62263 18.9146 8.93599 19.7248C8.24936 20.535 7.29761 21.0755 6.25 21.25C5.20239 21.0755 4.25064 20.535 3.56401 19.7248C2.87737 18.9146 2.50035 17.887 2.5 16.825V13.75C2.90102 13.75 3.29307 13.6313 3.62673 13.4089C3.9604 13.1864 4.22076 12.8702 4.375 12.5H8.125L8.19375 12.6312C8.36049 12.9677 8.61802 13.2507 8.93721 13.4484C9.2564 13.6461 9.62454 13.7506 10 13.75Z" fill="#028835"/>
<path d="M5.6256 18.7487C5.2881 18.7487 5.26935 18.6549 3.93185 17.3174C3.81416 17.1997 3.74805 17.0401 3.74805 16.8737C3.74805 16.7072 3.81416 16.5476 3.93185 16.4299C4.04954 16.3122 4.20917 16.2461 4.3756 16.2461C4.54204 16.2461 4.70166 16.3122 4.81935 16.4299L5.6256 17.2424L7.68185 15.1799C7.74013 15.1216 7.80931 15.0754 7.88545 15.0439C7.96159 15.0123 8.04319 14.9961 8.1256 14.9961C8.20802 14.9961 8.28962 15.0123 8.36576 15.0439C8.4419 15.0754 8.51108 15.1216 8.56935 15.1799C8.62763 15.2382 8.67385 15.3074 8.70539 15.3835C8.73693 15.4596 8.75316 15.5412 8.75316 15.6237C8.75316 15.7061 8.73693 15.7877 8.70539 15.8638C8.67385 15.9399 8.62763 16.0091 8.56935 16.0674L6.06935 18.5674C6.01095 18.6253 5.94169 18.6712 5.86555 18.7023C5.7894 18.7334 5.70786 18.7491 5.6256 18.7487Z" fill="#F8F9F9"/>
</svg>
