<svg width="28" height="30" viewBox="0 0 28 30" fill="none" xmlns="http://www.w3.org/2000/svg">
<path d="M21.1313 28.6008C20.5625 28.8195 21.7875 28.7508 3.95001 28.7508C3.51716 28.7502 3.0922 28.6349 2.71837 28.4167C2.34454 28.1985 2.0352 27.8852 1.82181 27.5086C1.60843 27.132 1.49863 26.7056 1.50358 26.2728C1.50853 25.8399 1.62806 25.4162 1.85001 25.0446C2.75001 23.5445 3.33126 22.7321 3.63126 21.2508C4.55001 16.6196 4.54376 16.5258 4.82501 15.6821C5.40343 13.7101 6.57533 11.9643 8.18126 10.6821L9.00001 10.0008H15.25L16.0688 10.6571C17.8392 12.0779 19.0896 14.0447 19.625 16.2508H19C18.8402 16.7905 18.5106 17.2643 18.0603 17.6021C17.61 17.9398 17.0629 18.1235 16.5 18.1258V21.6758C16.5009 23.1586 16.9414 24.6079 17.7657 25.8405C18.59 27.0731 19.7612 28.0336 21.1313 28.6008ZM17.125 2.74455L15.1188 7.5008H9.13126L7.12501 2.74455C7.03949 2.5423 7.01795 2.31871 7.0633 2.10386C7.10865 1.88901 7.21871 1.69319 7.37867 1.54276C7.53863 1.39233 7.74083 1.29449 7.95806 1.2624C8.17529 1.23032 8.39714 1.26553 8.59376 1.3633C9.6505 1.92255 10.8252 2.22217 12.0207 2.23738C13.2162 2.2526 14.3981 1.98297 15.4688 1.4508C15.6563 1.33127 15.8716 1.26237 16.0938 1.2508C16.2747 1.24381 16.4544 1.28263 16.6163 1.36365C16.7782 1.44467 16.9171 1.56526 17.0199 1.71425C17.1228 1.86325 17.1863 2.0358 17.2047 2.21591C17.2231 2.39603 17.1957 2.57786 17.125 2.74455Z" fill="#F8F9F9"/>
<path opacity="0.4" d="M9.62506 29.3769C9.37644 29.3477 9.13143 29.2932 8.89381 29.2144C8.20356 29.0427 7.56785 28.6994 7.0456 28.2165C6.52336 27.7336 6.13148 27.1266 5.90631 26.4519C5.88005 26.374 5.8694 26.2916 5.87497 26.2095C5.88055 26.1274 5.90224 26.0472 5.9388 25.9735C5.97536 25.8998 6.02608 25.834 6.08807 25.7799C6.15006 25.7258 6.22209 25.6844 6.30006 25.6582C6.37804 25.6319 6.46042 25.6213 6.54251 25.6268C6.62459 25.6324 6.70478 25.6541 6.77849 25.6907C6.85219 25.7272 6.91798 25.7779 6.97208 25.8399C7.02619 25.9019 7.06755 25.974 7.09381 26.0519C7.25032 26.5281 7.52507 26.9567 7.89234 27.2977C8.25961 27.6388 8.70741 27.8811 9.19381 28.0019L9.77506 28.1457C9.92283 28.1827 10.052 28.2724 10.1383 28.398C10.2245 28.5235 10.262 28.6763 10.2435 28.8275C10.2251 28.9787 10.1521 29.118 10.0382 29.2192C9.92432 29.3204 9.7774 29.3765 9.62506 29.3769ZM14.6251 29.3769C14.4593 29.3968 14.2924 29.35 14.1612 29.2469C14.0299 29.1438 13.945 28.9927 13.9251 28.8269C13.9052 28.6612 13.9519 28.4943 14.0551 28.363C14.1582 28.2317 14.3093 28.1468 14.4751 28.1269L15.0563 27.9832C15.5427 27.8623 15.9905 27.62 16.3578 27.279C16.7251 26.938 16.9998 26.5093 17.1563 26.0332C17.1826 25.9552 17.2239 25.8832 17.278 25.8212C17.3322 25.7592 17.3979 25.7085 17.4716 25.6719C17.5453 25.6353 17.6255 25.6137 17.7076 25.6081C17.7897 25.6025 17.8721 25.6132 17.9501 25.6394C18.028 25.6657 18.1001 25.7071 18.1621 25.7612C18.224 25.8153 18.2748 25.881 18.3113 25.9548C18.3479 26.0285 18.3696 26.1086 18.3752 26.1907C18.3807 26.2728 18.3701 26.3552 18.3438 26.4332C18.1186 27.1079 17.7268 27.7148 17.2045 28.1978C16.6823 28.6807 16.0466 29.0239 15.3563 29.1957C15.1196 29.2816 14.8745 29.3423 14.6251 29.3769ZM13.3751 5.00192C10.5188 5.00192 9.12506 2.27067 9.06881 2.15817C9.0245 2.08453 8.99586 2.00254 8.98466 1.91733C8.97347 1.83211 8.97997 1.74551 9.00377 1.66292C9.02756 1.58033 9.06813 1.50354 9.12294 1.43734C9.17775 1.37114 9.24563 1.31696 9.32233 1.27818C9.39903 1.2394 9.4829 1.21685 9.56871 1.21195C9.65451 1.20705 9.74041 1.2199 9.82102 1.2497C9.90164 1.2795 9.97524 1.3256 10.0372 1.38513C10.0992 1.44466 10.1483 1.51633 10.1813 1.59567C10.2001 1.63317 11.3126 3.75192 13.3751 3.75192C13.5408 3.75192 13.6998 3.81777 13.817 3.93498C13.9342 4.05219 14.0001 4.21116 14.0001 4.37692C14.0001 4.54268 13.9342 4.70166 13.817 4.81887C13.6998 4.93608 13.5408 5.00192 13.3751 5.00192ZM15.2501 10.0019H9.00006C8.66854 10.0019 8.3506 9.87023 8.11618 9.63581C7.88176 9.40139 7.75006 9.08344 7.75006 8.75192C7.75006 8.4204 7.88176 8.10246 8.11618 7.86804C8.3506 7.63362 8.66854 7.50192 9.00006 7.50192H15.2501C15.5816 7.50192 15.8995 7.63362 16.1339 7.86804C16.3684 8.10246 16.5001 8.4204 16.5001 8.75192C16.5001 9.08344 16.3684 9.40139 16.1339 9.63581C15.8995 9.87023 15.5816 10.0019 15.2501 10.0019Z" fill="#028835"/>
<path d="M21.5 29.3748H3.95C3.13497 29.3731 2.35379 29.0486 1.77747 28.4723C1.20115 27.896 0.876652 27.1148 0.875 26.2998C0.875 25.2498 1.30625 24.731 2.16875 23.2935C4.23125 19.8623 2.66875 14.2498 7.79375 10.1685L8.60625 9.54353C8.85 9.34978 8.53125 9.40603 15.25 9.40603C15.5312 9.40603 15.575 9.48728 16.4625 10.1998C18.3308 11.7027 19.6493 13.7816 20.2125 16.1123C20.2419 16.1931 20.2542 16.2791 20.2488 16.3649C20.2434 16.4507 20.2204 16.5345 20.1811 16.611C20.1419 16.6875 20.0872 16.7551 20.0207 16.8095C19.9541 16.8639 19.877 16.904 19.7943 16.9273C19.7115 16.9506 19.6248 16.9565 19.5396 16.9448C19.4545 16.933 19.3726 16.9038 19.2993 16.859C19.2259 16.8142 19.1625 16.7547 19.1132 16.6843C19.0639 16.6139 19.0296 16.534 19.0125 16.4498C18.5211 14.3708 17.3512 12.5148 15.6875 11.1748L15.0625 10.656H9.25L8.625 11.1748C3.925 14.9248 5.5 20.2623 3.29375 23.9685C2.4375 25.2748 2.125 25.6248 2.125 26.2998C2.125 26.7838 2.31728 27.248 2.65953 27.5902C3.00178 27.9325 3.46598 28.1248 3.95 28.1248H21.5C21.6658 28.1248 21.8247 28.1906 21.9419 28.3078C22.0592 28.425 22.125 28.584 22.125 28.7498C22.125 28.9155 22.0592 29.0745 21.9419 29.1917C21.8247 29.3089 21.6658 29.3748 21.5 29.3748Z" fill="#004C3F"/>
<path opacity="0.4" d="M26.5 18.1289V21.6789C26.5008 23.2305 26.0204 24.7442 25.1249 26.0114C24.2294 27.2785 22.9629 28.2367 21.5 28.7539C20.0371 28.2367 18.7706 27.2785 17.8751 26.0114C16.9796 24.7442 16.4992 23.2305 16.5 21.6789V18.1289C17.0634 18.1286 17.6115 17.9457 18.0622 17.6077C18.5129 17.2696 18.8419 16.7947 19 16.2539H24C24.1581 16.7947 24.4871 17.2696 24.9378 17.6077C25.3885 17.9457 25.9366 18.1286 26.5 18.1289Z" fill="#028835"/>
<path d="M21.15 29.2884C19.6035 28.7025 18.2713 27.6612 17.3294 26.3019C16.3875 24.9427 15.8804 23.3295 15.875 21.6758V18.1258C15.875 17.9601 15.9408 17.8011 16.0581 17.6839C16.1753 17.5667 16.3342 17.5008 16.5 17.5008C16.9147 17.5012 17.319 17.3709 17.6555 17.1286C17.992 16.8863 18.2438 16.5442 18.375 16.1509C18.4046 16.0056 18.4825 15.8747 18.5959 15.7794C18.7094 15.684 18.8518 15.6299 19 15.6258H24C24.1363 15.6187 24.2712 15.6564 24.384 15.7332C24.4969 15.8099 24.5815 15.9215 24.625 16.0509C24.7386 16.4629 24.9827 16.8269 25.3208 17.0884C25.6589 17.3498 26.0727 17.4946 26.5 17.5008C26.6658 17.5008 26.8247 17.5667 26.9419 17.6839C27.0592 17.8011 27.125 17.9601 27.125 18.1258V21.6758C27.1199 23.3537 26.5982 24.9892 25.6309 26.3602C24.6637 27.7311 23.2977 28.771 21.7187 29.3383C21.6253 29.3679 21.527 29.3787 21.4294 29.3701C21.3318 29.3615 21.2368 29.3337 21.15 29.2884ZM17.125 18.6883V21.6758C17.1297 23.0588 17.5492 24.4085 18.3291 25.5506C19.109 26.6926 20.2136 27.5744 21.5 28.0821C22.7864 27.5744 23.891 26.6926 24.6709 25.5506C25.4508 24.4085 25.8703 23.0588 25.875 21.6758V18.6883C25.3743 18.591 24.904 18.3759 24.5029 18.0607C24.1019 17.7455 23.7817 17.3394 23.5688 16.8758H19.4312C19.2183 17.3394 18.8981 17.7455 18.4971 18.0607C18.096 18.3759 17.6257 18.591 17.125 18.6883Z" fill="#004C3F"/>
<path d="M21.5001 18.1289V22.5039H18.4376C18.3445 21.536 18.3236 20.5624 18.3751 19.5914C19.0821 19.2664 19.6919 18.7623 20.1439 18.1289H21.5001Z" fill="#028835"/>
<path d="M24.625 19.5914C24.6765 20.5624 24.6556 21.536 24.5625 22.5039H21.5V18.1289H22.8562C23.3067 18.7637 23.9169 19.2682 24.625 19.5914ZM21.5 22.5039V26.7227C20.6886 26.3166 19.9868 25.7214 19.4537 24.9871C18.9207 24.2529 18.5722 23.4012 18.4375 22.5039H21.5Z" fill="#F8F9F9"/>
<path d="M24.5625 22.5C24.4278 23.3973 24.0793 24.249 23.5463 24.9832C23.0132 25.7175 22.3114 26.3127 21.5 26.7188V22.5H24.5625Z" fill="#028835"/>
<path d="M15.25 10.6289H9C8.50272 10.6289 8.02581 10.4314 7.67417 10.0797C7.32254 9.7281 7.125 9.25119 7.125 8.75391C7.125 8.25663 7.32254 7.77971 7.67417 7.42808C8.02581 7.07645 8.50272 6.87891 9 6.87891H15.25C15.7473 6.87891 16.2242 7.07645 16.5758 7.42808C16.9275 7.77971 17.125 8.25663 17.125 8.75391C17.125 9.25119 16.9275 9.7281 16.5758 10.0797C16.2242 10.4314 15.7473 10.6289 15.25 10.6289ZM9 8.12891C8.83424 8.12891 8.67527 8.19475 8.55806 8.31196C8.44085 8.42917 8.375 8.58815 8.375 8.75391C8.375 8.91967 8.44085 9.07864 8.55806 9.19585C8.67527 9.31306 8.83424 9.37891 9 9.37891H15.25C15.4158 9.37891 15.5747 9.31306 15.6919 9.19585C15.8092 9.07864 15.875 8.91967 15.875 8.75391C15.875 8.58815 15.8092 8.42917 15.6919 8.31196C15.5747 8.19475 15.4158 8.12891 15.25 8.12891H9Z" fill="#004C3F"/>
<path d="M15.1186 8.12715H9.13105C9.00837 8.12705 8.88843 8.09085 8.78618 8.02306C8.68393 7.95526 8.6039 7.85887 8.55605 7.7459L6.5498 2.98965C6.41761 2.66916 6.38619 2.31599 6.45972 1.97719C6.53325 1.63838 6.70824 1.33001 6.9614 1.09315C7.21455 0.856278 7.53386 0.702148 7.8768 0.65128C8.21974 0.600412 8.57004 0.655219 8.88105 0.808405C9.88071 1.33656 10.9942 1.61263 12.1248 1.61263C13.2554 1.61263 14.3689 1.33656 15.3686 0.808405C15.6796 0.655219 16.0299 0.600412 16.3728 0.65128C16.7157 0.702148 17.0351 0.856278 17.2882 1.09315C17.5414 1.33001 17.7164 1.63838 17.7899 1.97719C17.8634 2.31599 17.832 2.66916 17.6998 2.98965L15.6936 7.7459C15.6457 7.85887 15.5657 7.95526 15.4634 8.02306C15.3612 8.09085 15.2412 8.12705 15.1186 8.12715ZM9.54355 6.87715H14.7061L16.5436 2.50215C16.5804 2.4165 16.5898 2.32151 16.5703 2.23032C16.5508 2.13913 16.5035 2.05624 16.4349 1.99311C16.3663 1.92997 16.2797 1.88972 16.1872 1.8779C16.0947 1.86609 16.0008 1.8833 15.9186 1.92715C14.7742 2.52638 13.5043 2.84614 12.2127 2.86026C10.9211 2.87439 9.64444 2.58247 8.4873 2.0084C8.37545 1.93357 8.24641 1.88841 8.1123 1.87715C8.03822 1.8775 7.96537 1.89612 7.90021 1.93138C7.83506 1.96664 7.77961 2.01744 7.7388 2.07927C7.698 2.1411 7.67308 2.21205 7.66628 2.28582C7.65948 2.35959 7.67099 2.4339 7.6998 2.50215L9.54355 6.87715Z" fill="#004C3F"/>
<path opacity="0.4" d="M12.75 23.7539H10.25C10.0842 23.7539 9.92527 23.6881 9.80806 23.5708C9.69085 23.4536 9.625 23.2947 9.625 23.1289C9.625 22.9631 9.69085 22.8042 9.80806 22.687C9.92527 22.5698 10.0842 22.5039 10.25 22.5039H12.75C12.9158 22.5039 13.0747 22.4381 13.1919 22.3208C13.3092 22.2036 13.375 22.0447 13.375 21.8789C13.375 21.7131 13.3092 21.5542 13.1919 21.437C13.0747 21.3198 12.9158 21.2539 12.75 21.2539H11.5C11.0027 21.2539 10.5258 21.0564 10.1742 20.7047C9.82254 20.3531 9.625 19.8762 9.625 19.3789C9.625 18.8816 9.82254 18.4047 10.1742 18.0531C10.5258 17.7015 11.0027 17.5039 11.5 17.5039H14C14.1658 17.5039 14.3247 17.5698 14.4419 17.687C14.5592 17.8042 14.625 17.9631 14.625 18.1289C14.625 18.2947 14.5592 18.4536 14.4419 18.5708C14.3247 18.6881 14.1658 18.7539 14 18.7539H11.5C11.3342 18.7539 11.1753 18.8198 11.0581 18.937C10.9408 19.0542 10.875 19.2131 10.875 19.3789C10.875 19.5447 10.9408 19.7036 11.0581 19.8208C11.1753 19.9381 11.3342 20.0039 11.5 20.0039H12.75C13.2473 20.0039 13.7242 20.2015 14.0758 20.5531C14.4275 20.9047 14.625 21.3816 14.625 21.8789C14.625 22.3762 14.4275 22.8531 14.0758 23.2047C13.7242 23.5564 13.2473 23.7539 12.75 23.7539Z" fill="#028835"/>
<path opacity="0.4" d="M12.125 18.7539C11.9592 18.7539 11.8003 18.6881 11.6831 18.5708C11.5658 18.4536 11.5 18.2947 11.5 18.1289V16.8789C11.5 16.7131 11.5658 16.5542 11.6831 16.437C11.8003 16.3198 11.9592 16.2539 12.125 16.2539C12.2908 16.2539 12.4497 16.3198 12.5669 16.437C12.6842 16.5542 12.75 16.7131 12.75 16.8789V18.1289C12.75 18.2947 12.6842 18.4536 12.5669 18.5708C12.4497 18.6881 12.2908 18.7539 12.125 18.7539ZM12.125 25.0039C11.9592 25.0039 11.8003 24.9381 11.6831 24.8208C11.5658 24.7036 11.5 24.5447 11.5 24.3789V23.1289C11.5 22.9631 11.5658 22.8042 11.6831 22.687C11.8003 22.5698 11.9592 22.5039 12.125 22.5039C12.2908 22.5039 12.4497 22.5698 12.5669 22.687C12.6842 22.8042 12.75 22.9631 12.75 23.1289V24.3789C12.75 24.5447 12.6842 24.7036 12.5669 24.8208C12.4497 24.9381 12.2908 25.0039 12.125 25.0039Z" fill="#028835"/>
</svg>
