<svg width="26" height="30" viewBox="0 0 26 30" fill="none" xmlns="http://www.w3.org/2000/svg">
<path d="M21.1259 20.5052C21.123 21.1249 20.9844 21.7364 20.7199 22.2968C20.4553 22.8572 20.0713 23.3528 19.5947 23.7489L14.1072 28.3239C13.7958 28.581 13.4047 28.7216 13.0009 28.7216C12.5972 28.7216 12.206 28.581 11.8947 28.3239L6.40717 23.7489C5.74853 23.185 5.27756 22.4336 5.05709 21.595C4.83661 20.7564 4.87713 19.8705 5.17323 19.0556C5.46934 18.2406 6.00694 17.5353 6.7143 17.0338C7.42166 16.5324 8.26513 16.2585 9.13216 16.2489C11.2759 16.2489 12.0634 17.1864 13.0009 18.1239L13.6259 17.4989C16.1884 14.9364 21.1259 16.4677 21.1259 20.5052Z" fill="#F8F9F9"/>
<path opacity="0.4" d="M24.8755 13.75L24.513 13.4563C23.753 12.8501 22.7963 12.545 21.8257 12.5992C20.8551 12.6534 19.9383 13.063 19.2505 13.75L18.6255 13.225C17.9249 12.6641 17.0542 12.3585 16.1567 12.3585C15.2593 12.3585 14.3886 12.6641 13.688 13.225L13.0005 13.75L12.3755 13.225C11.6749 12.6641 10.8042 12.3585 9.90674 12.3585C9.00928 12.3585 8.13857 12.6641 7.43799 13.225L6.75049 13.75C6.06333 13.0618 5.14643 12.6512 4.1754 12.597C3.20437 12.5428 2.24747 12.8488 1.48799 13.4563L1.12549 13.75C1.12549 10.6006 2.3766 7.5801 4.6036 5.35311C6.83059 3.12611 9.85104 1.875 13.0005 1.875C16.1499 1.875 19.1704 3.12611 21.3974 5.35311C23.6244 7.5801 24.8755 10.6006 24.8755 13.75Z" fill="#028835"/>
<path d="M24.8755 14.3758C24.6005 14.3758 24.4817 14.2383 24.1192 13.9446C23.4799 13.4349 22.6753 13.1787 21.859 13.2248C21.0427 13.2709 20.272 13.6162 19.6942 14.1946C19.5852 14.3027 19.4403 14.3669 19.2869 14.375C19.1336 14.383 18.9827 14.3344 18.863 14.2383L18.2067 13.7133C17.6175 13.2374 16.8829 12.9778 16.1255 12.9778C15.368 12.9778 14.6335 13.2374 14.0442 13.7133L13.4192 14.2383C13.3045 14.3265 13.1639 14.3743 13.0192 14.3743C12.8745 14.3743 12.7339 14.3265 12.6192 14.2383L11.9942 13.7133C11.4064 13.2368 10.6728 12.9768 9.9161 12.9768C9.15944 12.9768 8.42576 13.2368 7.83798 13.7133L7.18173 14.2383C7.06198 14.3344 6.91107 14.383 6.75776 14.375C6.60445 14.3669 6.45947 14.3027 6.35048 14.1946C5.77162 13.6157 4.99988 13.2702 4.18255 13.2241C3.36522 13.178 2.55952 13.4345 1.91923 13.9446L1.56298 14.2383C1.47265 14.3274 1.35734 14.3869 1.23238 14.4089C1.10741 14.4309 0.978711 14.4144 0.863385 14.3615C0.748058 14.3085 0.651569 14.2218 0.586744 14.1127C0.521919 14.0036 0.49183 13.8774 0.500477 13.7508C0.493017 10.4356 1.80282 7.25322 4.14175 4.90374C6.48068 2.55426 9.65715 1.23015 12.9724 1.22269C16.2876 1.21523 19.4699 2.52504 21.8194 4.86397C24.1689 7.2029 25.493 10.3794 25.5005 13.6946C25.5083 13.7812 25.498 13.8686 25.4701 13.951C25.4422 14.0335 25.3974 14.1092 25.3386 14.1733C25.2797 14.2375 25.2081 14.2886 25.1284 14.3235C25.0487 14.3583 24.9625 14.3762 24.8755 14.3758ZM12.738 12.7383L13.0005 12.9508L13.263 12.7383C14.073 12.0827 15.0834 11.7251 16.1255 11.7251C17.1675 11.7251 18.178 12.0827 18.988 12.7383L19.2317 12.9321C19.9155 12.4009 20.7357 12.0744 21.5974 11.9903C22.4591 11.9063 23.327 12.0681 24.1005 12.4571C23.6665 9.82634 22.3123 7.43525 20.2793 5.71014C18.2464 3.98503 15.6668 3.03805 13.0005 3.03805C10.3342 3.03805 7.75459 3.98503 5.72161 5.71014C3.68862 7.43525 2.33442 9.82634 1.90048 12.4571C2.67339 12.0659 3.54171 11.9028 4.40389 11.9869C5.26608 12.071 6.0865 12.3988 6.76923 12.9321L7.01923 12.7383C7.82872 12.0843 8.83794 11.7276 9.8786 11.7276C10.9193 11.7276 11.9285 12.0843 12.738 12.7383Z" fill="#004C3F"/>
<path d="M19.2502 14.375C19.0907 14.3753 18.9372 14.3146 18.821 14.2054C18.7048 14.0962 18.6348 13.9467 18.6252 13.7875L18.5877 13.125C18.2565 7.5 15.8065 3.125 13.0002 3.125C10.194 3.125 7.74396 7.5 7.41271 13.125L7.37521 13.7875C7.37043 13.8696 7.34949 13.95 7.31358 14.024C7.27767 14.098 7.2275 14.1642 7.16595 14.2188C7.1044 14.2734 7.03268 14.3153 6.9549 14.3421C6.87713 14.3689 6.79482 14.3801 6.71271 14.375C6.63059 14.3702 6.55021 14.3493 6.4762 14.3134C6.40218 14.2775 6.33599 14.2273 6.28141 14.1657C6.22682 14.1042 6.18493 14.0325 6.15813 13.9547C6.13132 13.8769 6.12014 13.7946 6.12521 13.7125L6.16896 13.025C6.53771 6.66875 9.47521 1.875 13.0002 1.875C16.5252 1.875 19.4627 6.66875 19.8315 13.025L19.8752 13.7125C19.8803 13.7977 19.868 13.883 19.8388 13.9632C19.8097 14.0434 19.7645 14.1168 19.706 14.1789C19.6474 14.241 19.5768 14.2904 19.4984 14.3241C19.42 14.3578 19.3355 14.3752 19.2502 14.375Z" fill="#004C3F"/>
<path d="M13.0005 18.75C12.8347 18.75 12.6758 18.6842 12.5585 18.5669C12.4413 18.4497 12.3755 18.2908 12.3755 18.125V1.25C12.3755 1.08424 12.4413 0.925268 12.5585 0.808058C12.6758 0.690848 12.8347 0.625 13.0005 0.625C13.1662 0.625 13.3252 0.690848 13.4424 0.808058C13.5596 0.925268 13.6255 1.08424 13.6255 1.25V18.125C13.6255 18.2908 13.5596 18.4497 13.4424 18.5669C13.3252 18.6842 13.1662 18.75 13.0005 18.75Z" fill="#004C3F"/>
<path d="M11.494 28.8328L6.00649 24.2578C5.23581 23.6156 4.6817 22.7515 4.41958 21.7832C4.15745 20.8149 4.20005 19.7893 4.54156 18.846C4.88307 17.9028 5.50692 17.0877 6.3282 16.5116C7.14948 15.9355 8.12832 15.6265 9.13149 15.6265C9.85601 15.5928 10.579 15.7205 11.2481 16.0005C11.9171 16.2804 12.5156 16.7056 13.0002 17.2453C13.4846 16.7053 14.083 16.2798 14.7522 15.9999C15.4213 15.7199 16.1444 15.5923 16.869 15.6265C17.8722 15.6265 18.851 15.9355 19.6723 16.5116C20.4936 17.0877 21.1174 17.9028 21.4589 18.846C21.8004 19.7893 21.843 20.8149 21.5809 21.7832C21.3188 22.7515 20.7647 23.6156 19.994 24.2578L14.5065 28.8328C14.0834 29.1845 13.5505 29.3771 13.0002 29.3771C12.45 29.3771 11.9171 29.1845 11.494 28.8328ZM9.13149 16.8765C8.38571 16.877 7.65814 17.107 7.04769 17.5355C6.43724 17.9639 5.9735 18.5699 5.71951 19.2711C5.46552 19.9723 5.43359 20.7347 5.62807 21.4547C5.82255 22.1747 6.234 22.8173 6.80649 23.2953L12.294 27.8703C12.494 28.0316 12.7433 28.1196 13.0002 28.1196C13.2572 28.1196 13.5065 28.0316 13.7065 27.8703L19.194 23.2953C19.763 22.8157 20.1712 22.1731 20.3636 21.4543C20.5559 20.7354 20.5232 19.9748 20.2697 19.2752C20.0163 18.5755 19.5544 17.9704 18.9463 17.5415C18.3382 17.1126 17.6131 16.8805 16.869 16.8765C15.1815 16.8765 14.6315 17.3765 13.444 18.5703C13.3859 18.6289 13.3168 18.6753 13.2406 18.7071C13.1644 18.7388 13.0828 18.7551 13.0002 18.7551C12.9177 18.7551 12.836 18.7388 12.7599 18.7071C12.6837 18.6753 12.6146 18.6289 12.5565 18.5703L11.9315 17.9453C11.5954 17.6059 11.1953 17.3367 10.7543 17.1532C10.3134 16.9697 9.84035 16.8757 9.36274 16.8765H9.13149Z" fill="#004C3F"/>
<path d="M11.1572 25.2009L9.87598 21.3509L9.25098 23.3259C9.20749 23.4553 9.12285 23.5669 9.01 23.6436C8.89714 23.7204 8.76227 23.7581 8.62598 23.7509H3.00098C2.83522 23.7509 2.67625 23.6851 2.55903 23.5679C2.44182 23.4507 2.37598 23.2917 2.37598 23.1259C2.37598 22.9602 2.44182 22.8012 2.55903 22.684C2.67625 22.5668 2.83522 22.5009 3.00098 22.5009H8.17598L9.28223 19.1759C9.32333 19.0509 9.40285 18.942 9.50947 18.8648C9.61609 18.7876 9.74435 18.7461 9.87598 18.7461C10.0076 18.7461 10.1359 18.7876 10.2425 18.8648C10.3491 18.942 10.4286 19.0509 10.4697 19.1759L11.9385 23.5884L12.4822 22.7822C12.5388 22.6962 12.6158 22.6256 12.7063 22.5765C12.7968 22.5274 12.898 22.5015 13.001 22.5009H14.4885L15.5697 20.3447C15.6222 20.2423 15.7019 20.1564 15.8 20.0964C15.8981 20.0364 16.0109 20.0047 16.126 20.0047C16.241 20.0047 16.3538 20.0364 16.4519 20.0964C16.5501 20.1564 16.6298 20.2423 16.6822 20.3447L17.7635 22.5009H23.001C23.1667 22.5009 23.3257 22.5668 23.4429 22.684C23.5601 22.8012 23.626 22.9602 23.626 23.1259C23.626 23.2917 23.5601 23.4507 23.4429 23.5679C23.3257 23.6851 23.1667 23.7509 23.001 23.7509H17.376C17.2606 23.7506 17.1475 23.7183 17.0493 23.6576C16.9511 23.5969 16.8717 23.5103 16.8197 23.4072L16.126 22.0259L15.4322 23.4072C15.3803 23.5103 15.3008 23.5969 15.2026 23.6576C15.1045 23.7183 14.9914 23.7506 14.876 23.7509H13.3385L12.2697 25.3447C12.2052 25.442 12.1147 25.5193 12.0085 25.5678C11.9022 25.6164 11.7845 25.6341 11.6687 25.6192C11.5529 25.6042 11.4436 25.5571 11.3532 25.4832C11.2628 25.4092 11.1949 25.3115 11.1572 25.2009Z" fill="#004C3F"/>
</svg>
