<svg width="36" height="40" viewBox="0 0 36 40" fill="none" xmlns="http://www.w3.org/2000/svg">
<path d="M35.5548 24.9738V22.4492H23.9165C23.9165 25.7159 21.2683 28.3642 18.0015 28.3642C14.7347 28.3642 12.0865 25.716 12.0865 22.4492H0.448242V24.9738L5.50199 25.509C5.81723 26.8012 6.32762 28.017 7.0002 29.1232L3.80426 33.0761L7.37465 36.6465L11.3275 33.4505C12.4338 34.1231 13.6496 34.6335 14.9418 34.9488L15.4769 40.0025H20.5261L21.0613 34.9488C22.3535 34.6335 23.5693 34.1231 24.6755 33.4505L28.6284 36.6465L32.1988 33.0761L29.0029 29.1232C29.6754 28.017 30.1858 26.8012 30.5011 25.509L35.5548 24.9738Z" fill="white"/>
<path d="M18.0026 0C15.5027 0 13.4688 2.03391 13.4688 4.53383C13.4688 7.03375 15.5027 9.06758 18.0026 9.06758C20.5025 9.06758 22.5364 7.03375 22.5364 4.53383C22.5364 2.03391 20.5025 0 18.0026 0Z" fill="white"/>
<path d="M22.8315 10.3242H13.1773C10.9547 10.3243 9.14648 12.1324 9.14648 14.355V20.1061H26.8623V14.355C26.8623 12.1324 25.0541 10.3242 22.8315 10.3242Z" fill="white"/>
<path d="M8.38473 2.09375C6.14519 2.09375 4.32324 3.91578 4.32324 6.15523C4.32324 8.37672 6.11629 10.1863 8.33105 10.2153C9.24824 9.1425 10.5138 8.3768 11.9516 8.09594C12.2668 7.51898 12.4462 6.85773 12.4462 6.15523C12.4462 3.9157 10.6243 2.09375 8.38473 2.09375Z" fill="white"/>
<path d="M4.0591 11.3438C2.06809 11.3438 0.448242 12.9635 0.448242 14.9546V20.1066H6.79988V14.3554C6.79988 13.2667 7.07473 12.2412 7.55793 11.3438H4.0591Z" fill="white"/>
<path d="M27.6191 2.09375C25.3796 2.09375 23.5576 3.91578 23.5576 6.15523C23.5576 6.85766 23.737 7.51898 24.0521 8.09594C25.49 8.3768 26.7556 9.1425 27.6728 10.2153C29.8875 10.1864 31.6806 8.37672 31.6806 6.15523C31.6806 3.9157 29.8586 2.09375 27.6191 2.09375Z" fill="white"/>
<path d="M31.9422 11.3438H28.4434C28.9266 12.2412 29.2014 13.2667 29.2014 14.3554V20.1065H35.553V14.9545C35.553 12.9635 33.9332 11.3438 31.9422 11.3438Z" fill="white"/>
</svg>
