<svg width="27" height="29" viewBox="0 0 27 29" fill="none" xmlns="http://www.w3.org/2000/svg">
<path d="M20.2563 27.968C19.6875 28.1867 20.9125 28.118 3.07501 28.118C2.64216 28.1174 2.2172 28.0021 1.84337 27.7839C1.46954 27.5657 1.1602 27.2524 0.946812 26.8758C0.733429 26.4992 0.623626 26.0728 0.628578 25.64C0.633531 25.2071 0.753063 24.7834 0.975009 24.4117C1.87501 22.9117 2.45626 22.0992 2.75626 20.618C3.67501 15.9867 3.66876 15.893 3.95001 15.0492C4.52843 13.0773 5.70033 11.3315 7.30626 10.0492L8.12501 9.36799H14.375L15.1938 10.0242C16.9642 11.4451 18.2146 13.4119 18.75 15.618H18.125C17.9652 16.1577 17.6356 16.6315 17.1853 16.9693C16.735 17.307 16.1879 17.4906 15.625 17.493V21.043C15.6259 22.5258 16.0664 23.9751 16.8907 25.2077C17.715 26.4402 18.8862 27.4008 20.2563 27.968ZM16.25 2.11174L14.2438 6.86799H8.25626L6.25001 2.11174C6.16449 1.90949 6.14295 1.6859 6.1883 1.47105C6.23365 1.25619 6.34371 1.06038 6.50367 0.909947C6.66363 0.759513 6.86583 0.661675 7.08306 0.629591C7.30029 0.597508 7.52214 0.63272 7.71876 0.730489C8.7755 1.28973 9.95019 1.58936 11.1457 1.60457C12.3412 1.61979 13.5231 1.35016 14.5938 0.817989C14.7813 0.698458 14.9966 0.629553 15.2188 0.617989C15.3997 0.610999 15.5794 0.649815 15.7413 0.730834C15.9032 0.811853 16.0421 0.932452 16.1449 1.08144C16.2478 1.23043 16.3113 1.40299 16.3297 1.5831C16.3481 1.76321 16.3207 1.94505 16.25 2.11174Z" fill="#F8F9FC"/>
<path opacity="0.4" d="M8.75006 28.7441C8.50144 28.7149 8.25643 28.6604 8.01881 28.5816C7.32856 28.4099 6.69285 28.0666 6.1706 27.5837C5.64836 27.1008 5.25648 26.4938 5.03131 25.8191C5.00505 25.7411 4.9944 25.6588 4.99997 25.5767C5.00555 25.4946 5.02724 25.4144 5.0638 25.3407C5.10036 25.267 5.15108 25.2012 5.21307 25.1471C5.27506 25.093 5.34709 25.0516 5.42506 25.0254C5.50304 24.9991 5.58542 24.9884 5.66751 24.994C5.74959 24.9996 5.82978 25.0213 5.90349 25.0578C5.97719 25.0944 6.04298 25.1451 6.09708 25.2071C6.15119 25.2691 6.19255 25.3411 6.21881 25.4191C6.37532 25.8952 6.65007 26.3239 7.01734 26.6649C7.38461 27.006 7.83241 27.2483 8.31881 27.3691L8.90006 27.5129C9.04783 27.5499 9.17699 27.6396 9.26326 27.7652C9.34953 27.8907 9.38697 28.0435 9.36855 28.1947C9.35013 28.3459 9.27711 28.4852 9.16322 28.5864C9.04932 28.6875 8.9024 28.7436 8.75006 28.7441ZM13.7501 28.7441C13.5843 28.764 13.4174 28.7172 13.2862 28.6141C13.1549 28.5109 13.07 28.3599 13.0501 28.1941C13.0302 28.0284 13.0769 27.8615 13.1801 27.7302C13.2832 27.5989 13.4343 27.514 13.6001 27.4941L14.1813 27.3504C14.6677 27.2295 15.1155 26.9872 15.4828 26.6462C15.8501 26.3051 16.1248 25.8765 16.2813 25.4004C16.3076 25.3224 16.3489 25.2504 16.403 25.1884C16.4572 25.1264 16.5229 25.0757 16.5966 25.0391C16.6703 25.0025 16.7505 24.9808 16.8326 24.9753C16.9147 24.9697 16.9971 24.9803 17.0751 25.0066C17.153 25.0329 17.2251 25.0742 17.2871 25.1283C17.349 25.1824 17.3998 25.2482 17.4363 25.3219C17.4729 25.3956 17.4946 25.4758 17.5002 25.5579C17.5057 25.64 17.4951 25.7224 17.4688 25.8004C17.2436 26.4751 16.8518 27.082 16.3295 27.5649C15.8073 28.0479 15.1716 28.3911 14.4813 28.5629C14.2446 28.6488 13.9995 28.7095 13.7501 28.7441ZM12.5001 4.36911C9.64381 4.36911 8.25006 1.63786 8.19381 1.52536C8.1495 1.45172 8.12086 1.36973 8.10966 1.28452C8.09847 1.1993 8.10497 1.1127 8.12877 1.03011C8.15256 0.947521 8.19313 0.870728 8.24794 0.804529C8.30275 0.73833 8.37063 0.684148 8.44733 0.645367C8.52403 0.606587 8.6079 0.584042 8.69371 0.579142C8.77951 0.574242 8.86541 0.587091 8.94602 0.616888C9.02664 0.646685 9.10024 0.692788 9.16223 0.752317C9.22423 0.811845 9.27327 0.88352 9.30631 0.962862C9.32506 1.00036 10.4376 3.11911 12.5001 3.11911C12.6658 3.11911 12.8248 3.18496 12.942 3.30217C13.0592 3.41938 13.1251 3.57835 13.1251 3.74411C13.1251 3.90987 13.0592 4.06884 12.942 4.18605C12.8248 4.30326 12.6658 4.36911 12.5001 4.36911ZM14.3751 9.36911H8.12506C7.79354 9.36911 7.4756 9.23742 7.24118 9.00299C7.00676 8.76857 6.87506 8.45063 6.87506 8.11911C6.87506 7.78759 7.00676 7.46965 7.24118 7.23523C7.4756 7.00081 7.79354 6.86911 8.12506 6.86911H14.3751C14.7066 6.86911 15.0245 7.00081 15.2589 7.23523C15.4934 7.46965 15.6251 7.78759 15.6251 8.11911C15.6251 8.45063 15.4934 8.76857 15.2589 9.00299C15.0245 9.23742 14.7066 9.36911 14.3751 9.36911Z" fill="#028835"/>
<path d="M20.625 28.742H3.075C2.25997 28.7403 1.47879 28.4158 0.902471 27.8395C0.326154 27.2632 0.00165154 26.482 0 25.667C0 24.617 0.43125 24.0982 1.29375 22.6607C3.35625 19.2295 1.79375 13.617 6.91875 9.53572L7.73125 8.91072C7.975 8.71697 7.65625 8.77322 14.375 8.77322C14.6562 8.77322 14.7 8.85447 15.5875 9.56697C17.4558 11.0699 18.7743 13.1488 19.3375 15.4795C19.3669 15.5603 19.3792 15.6463 19.3738 15.7321C19.3684 15.8179 19.3454 15.9017 19.3061 15.9782C19.2669 16.0547 19.2122 16.1223 19.1457 16.1767C19.0791 16.2311 19.002 16.2712 18.9193 16.2945C18.8365 16.3178 18.7498 16.3237 18.6646 16.312C18.5795 16.3002 18.4976 16.271 18.4243 16.2262C18.3509 16.1814 18.2875 16.1219 18.2382 16.0515C18.1889 15.9811 18.1546 15.9012 18.1375 15.817C17.6461 13.738 16.4762 11.882 14.8125 10.542L14.1875 10.0232H8.375L7.75 10.542C3.05 14.292 4.625 19.6295 2.41875 23.3357C1.5625 24.642 1.25 24.992 1.25 25.667C1.25 26.151 1.44228 26.6152 1.78453 26.9574C2.12678 27.2997 2.59098 27.492 3.075 27.492H20.625C20.7908 27.492 20.9497 27.5578 21.0669 27.675C21.1842 27.7922 21.25 27.9512 21.25 28.117C21.25 28.2827 21.1842 28.4417 21.0669 28.5589C20.9497 28.6761 20.7908 28.742 20.625 28.742Z" fill="#004C3F"/>
<path opacity="0.4" d="M25.625 17.4961V21.0461C25.6258 22.5977 25.1454 24.1114 24.2499 25.3785C23.3544 26.6457 22.0879 27.6039 20.625 28.1211C19.1621 27.6039 17.8956 26.6457 17.0001 25.3785C16.1046 24.1114 15.6242 22.5977 15.625 21.0461V17.4961C16.1884 17.4958 16.7365 17.3129 17.1872 16.9748C17.6379 16.6368 17.9669 16.1618 18.125 15.6211H23.125C23.2831 16.1618 23.6121 16.6368 24.0628 16.9748C24.5135 17.3129 25.0616 17.4958 25.625 17.4961Z" fill="#028835"/>
<path d="M20.275 28.6555C18.7285 28.0697 17.3963 27.0284 16.4544 25.6691C15.5125 24.3098 15.0054 22.6967 15 21.043V17.493C15 17.3273 15.0658 17.1683 15.1831 17.0511C15.3003 16.9339 15.4592 16.868 15.625 16.868C16.0397 16.8684 16.444 16.7381 16.7805 16.4958C17.117 16.2535 17.3688 15.9114 17.5 15.518C17.5296 15.3728 17.6075 15.2419 17.7209 15.1465C17.8344 15.0512 17.9768 14.9971 18.125 14.993H23.125C23.2613 14.9859 23.3962 15.0236 23.509 15.1004C23.6219 15.1771 23.7065 15.2887 23.75 15.418C23.8636 15.8301 24.1077 16.1941 24.4458 16.4556C24.7839 16.717 25.1977 16.8618 25.625 16.868C25.7908 16.868 25.9497 16.9339 26.0669 17.0511C26.1842 17.1683 26.25 17.3273 26.25 17.493V21.043C26.2449 22.7209 25.7232 24.3564 24.7559 25.7273C23.7887 27.0983 22.4227 28.1381 20.8437 28.7055C20.7503 28.7351 20.652 28.7459 20.5544 28.7373C20.4568 28.7287 20.3618 28.7009 20.275 28.6555ZM16.25 18.0555V21.043C16.2547 22.426 16.6742 23.7757 17.4541 24.9177C18.234 26.0598 19.3386 26.9416 20.625 27.4493C21.9114 26.9416 23.016 26.0598 23.7959 24.9177C24.5758 23.7757 24.9953 22.426 25 21.043V18.0555C24.4993 17.9582 24.029 17.7431 23.6279 17.4279C23.2269 17.1127 22.9067 16.7065 22.6938 16.243H18.5562C18.3433 16.7065 18.0231 17.1127 17.6221 17.4279C17.221 17.7431 16.7507 17.9582 16.25 18.0555Z" fill="#004C3F"/>
<path d="M20.6251 17.4961V21.8711H17.5626C17.4695 20.9032 17.4486 19.9296 17.5001 18.9586C18.2071 18.6336 18.8169 18.1295 19.2689 17.4961H20.6251Z" fill="#028835"/>
<path d="M23.75 18.9586C23.8015 19.9296 23.7806 20.9032 23.6875 21.8711H20.625V17.4961H21.9812C22.4317 18.1309 23.0419 18.6354 23.75 18.9586ZM20.625 21.8711V26.0898C19.8136 25.6838 19.1118 25.0886 18.5787 24.3543C18.0457 23.6201 17.6972 22.7684 17.5625 21.8711H20.625Z" fill="#F8F9FC"/>
<path d="M23.6875 21.8672C23.5528 22.7645 23.2043 23.6162 22.6713 24.3504C22.1382 25.0847 21.4364 25.6799 20.625 26.0859V21.8672H23.6875Z" fill="#028835"/>
<path d="M14.375 9.99609H8.125C7.62772 9.99609 7.15081 9.79855 6.79917 9.44692C6.44754 9.09529 6.25 8.61837 6.25 8.12109C6.25 7.62381 6.44754 7.1469 6.79917 6.79527C7.15081 6.44364 7.62772 6.24609 8.125 6.24609H14.375C14.8723 6.24609 15.3492 6.44364 15.7008 6.79527C16.0525 7.1469 16.25 7.62381 16.25 8.12109C16.25 8.61837 16.0525 9.09529 15.7008 9.44692C15.3492 9.79855 14.8723 9.99609 14.375 9.99609ZM8.125 7.49609C7.95924 7.49609 7.80027 7.56194 7.68306 7.67915C7.56585 7.79636 7.5 7.95533 7.5 8.12109C7.5 8.28685 7.56585 8.44583 7.68306 8.56304C7.80027 8.68025 7.95924 8.74609 8.125 8.74609H14.375C14.5408 8.74609 14.6997 8.68025 14.8169 8.56304C14.9342 8.44583 15 8.28685 15 8.12109C15 7.95533 14.9342 7.79636 14.8169 7.67915C14.6997 7.56194 14.5408 7.49609 14.375 7.49609H8.125Z" fill="#004C3F"/>
<path d="M14.2436 7.49434H8.25605C8.13337 7.49424 8.01343 7.45804 7.91118 7.39024C7.80893 7.32245 7.7289 7.22606 7.68105 7.11309L5.6748 2.35684C5.54261 2.03634 5.51119 1.68318 5.58472 1.34437C5.65825 1.00557 5.83324 0.697202 6.0864 0.460333C6.33955 0.223465 6.65886 0.0693354 7.0018 0.0184674C7.34474 -0.0324006 7.69504 0.022407 8.00605 0.175592C9.00571 0.703748 10.1192 0.979818 11.2498 0.979818C12.3804 0.979818 13.4939 0.703748 14.4936 0.175592C14.8046 0.022407 15.1549 -0.0324006 15.4978 0.0184674C15.8407 0.0693354 16.1601 0.223465 16.4132 0.460333C16.6664 0.697202 16.8414 1.00557 16.9149 1.34437C16.9884 1.68318 16.957 2.03634 16.8248 2.35684L14.8186 7.11309C14.7707 7.22606 14.6907 7.32245 14.5884 7.39024C14.4862 7.45804 14.3662 7.49424 14.2436 7.49434ZM8.66855 6.24434H13.8311L15.6686 1.86934C15.7054 1.78369 15.7148 1.6887 15.6953 1.59751C15.6758 1.50632 15.6285 1.42343 15.5599 1.36029C15.4913 1.29716 15.4047 1.2569 15.3122 1.24509C15.2197 1.23327 15.1258 1.25049 15.0436 1.29434C13.8992 1.89357 12.6293 2.21333 11.3377 2.22745C10.0461 2.24157 8.76944 1.94966 7.6123 1.37559C7.50045 1.30076 7.37141 1.25559 7.2373 1.24434C7.16322 1.24468 7.09037 1.26331 7.02521 1.29857C6.96006 1.33383 6.90461 1.38463 6.8638 1.44646C6.823 1.50829 6.79808 1.57924 6.79128 1.65301C6.78448 1.72678 6.79599 1.80109 6.8248 1.86934L8.66855 6.24434Z" fill="#004C3F"/>
<path opacity="0.4" d="M11.875 23.1211H9.375C9.20924 23.1211 9.05027 23.0552 8.93306 22.938C8.81585 22.8208 8.75 22.6619 8.75 22.4961C8.75 22.3303 8.81585 22.1714 8.93306 22.0542C9.05027 21.9369 9.20924 21.8711 9.375 21.8711H11.875C12.0408 21.8711 12.1997 21.8052 12.3169 21.688C12.4342 21.5708 12.5 21.4119 12.5 21.2461C12.5 21.0803 12.4342 20.9214 12.3169 20.8042C12.1997 20.6869 12.0408 20.6211 11.875 20.6211H10.625C10.1277 20.6211 9.65081 20.4235 9.29917 20.0719C8.94754 19.7203 8.75 19.2434 8.75 18.7461C8.75 18.2488 8.94754 17.7719 9.29917 17.4203C9.65081 17.0686 10.1277 16.8711 10.625 16.8711H13.125C13.2908 16.8711 13.4497 16.9369 13.5669 17.0542C13.6842 17.1714 13.75 17.3303 13.75 17.4961C13.75 17.6619 13.6842 17.8208 13.5669 17.938C13.4497 18.0552 13.2908 18.1211 13.125 18.1211H10.625C10.4592 18.1211 10.3003 18.1869 10.1831 18.3042C10.0658 18.4214 10 18.5803 10 18.7461C10 18.9119 10.0658 19.0708 10.1831 19.188C10.3003 19.3052 10.4592 19.3711 10.625 19.3711H11.875C12.3723 19.3711 12.8492 19.5686 13.2008 19.9203C13.5525 20.2719 13.75 20.7488 13.75 21.2461C13.75 21.7434 13.5525 22.2203 13.2008 22.5719C12.8492 22.9235 12.3723 23.1211 11.875 23.1211Z" fill="#028835"/>
<path opacity="0.4" d="M11.25 18.1211C11.0842 18.1211 10.9253 18.0552 10.8081 17.938C10.6908 17.8208 10.625 17.6619 10.625 17.4961V16.2461C10.625 16.0803 10.6908 15.9214 10.8081 15.8042C10.9253 15.6869 11.0842 15.6211 11.25 15.6211C11.4158 15.6211 11.5747 15.6869 11.6919 15.8042C11.8092 15.9214 11.875 16.0803 11.875 16.2461V17.4961C11.875 17.6619 11.8092 17.8208 11.6919 17.938C11.5747 18.0552 11.4158 18.1211 11.25 18.1211ZM11.25 24.3711C11.0842 24.3711 10.9253 24.3052 10.8081 24.188C10.6908 24.0708 10.625 23.9119 10.625 23.7461V22.4961C10.625 22.3303 10.6908 22.1714 10.8081 22.0542C10.9253 21.9369 11.0842 21.8711 11.25 21.8711C11.4158 21.8711 11.5747 21.9369 11.6919 22.0542C11.8092 22.1714 11.875 22.3303 11.875 22.4961V23.7461C11.875 23.9119 11.8092 24.0708 11.6919 24.188C11.5747 24.3052 11.4158 24.3711 11.25 24.3711Z" fill="#028835"/>
</svg>
