<svg width="28" height="28" viewBox="0 0 28 28" fill="none" xmlns="http://www.w3.org/2000/svg">
<path opacity="0.4" d="M25.9622 14.6123C26.1182 21.5837 19.9627 27.7331 12.9973 27.5891C6.21195 27.6251 0.374548 22.0877 0.032548 15.3083C-0.507452 8.07892 5.74995 1.47952 12.9913 1.63552C13.1593 1.63552 13.2913 1.77352 13.2913 1.93552V14.3123H25.6681C25.8301 14.3123 25.9622 14.4443 25.9622 14.6123Z" fill="#028835"/>
<path d="M27.6019 12.9768C27.6019 13.1388 27.4699 13.2708 27.3019 13.2708H14.6251C14.4631 13.2708 14.3311 13.1388 14.3311 12.9768V0.3C14.3311 0.132 14.4631 0 14.6251 0C21.7825 0 27.6019 5.8194 27.6019 12.9768Z" fill="#004C3F"/>
</svg>
