<svg width="29" height="30" viewBox="0 0 29 30" fill="none" xmlns="http://www.w3.org/2000/svg">
<path d="M24 1.875V8.03125L20.25 5.3875V1.875H24Z" fill="#F8F9FC"/>
<path opacity="0.4" d="M20.25 1.875H24V3.75H20.25V1.875Z" fill="#028835"/>
<path d="M24 8.65625C23.8342 8.65625 23.6753 8.5904 23.5581 8.47319C23.4408 8.35598 23.375 8.19701 23.375 8.03125V2.5H20.875V5.3875C20.875 5.55326 20.8092 5.71223 20.6919 5.82944C20.5747 5.94665 20.4158 6.0125 20.25 6.0125C20.0842 6.0125 19.9253 5.94665 19.8081 5.82944C19.6908 5.71223 19.625 5.55326 19.625 5.3875V1.875C19.625 1.70924 19.6908 1.55027 19.8081 1.43306C19.9253 1.31585 20.0842 1.25 20.25 1.25H24C24.1658 1.25 24.3247 1.31585 24.4419 1.43306C24.5592 1.55027 24.625 1.70924 24.625 1.875V8.03125C24.625 8.19701 24.5592 8.35598 24.4419 8.47319C24.3247 8.5904 24.1658 8.65625 24 8.65625Z" fill="#004C3F"/>
<path d="M24.625 2.5H19.625C19.4592 2.5 19.3003 2.43415 19.1831 2.31694C19.0658 2.19973 19 2.04076 19 1.875C19 1.70924 19.0658 1.55027 19.1831 1.43306C19.3003 1.31585 19.4592 1.25 19.625 1.25H24.625C24.7908 1.25 24.9497 1.31585 25.0669 1.43306C25.1842 1.55027 25.25 1.70924 25.25 1.875C25.25 2.04076 25.1842 2.19973 25.0669 2.31694C24.9497 2.43415 24.7908 2.5 24.625 2.5Z" fill="#004C3F"/>
<path d="M25.25 11.25V26.25H2.75V11.25C3.375 11.25 3.7125 11.2937 4.09375 11.0187L14 4.03125L23.9062 11.0187C24.2937 11.3 24.625 11.25 25.25 11.25Z" fill="#F8F9FC"/>
<path opacity="0.4" d="M27.125 9.99996V11.25C24.4438 11.25 24.325 11.3187 23.9062 11.0187L14 4.03121L4.09375 11.0187C3.6875 11.3125 3.59375 11.25 0.875 11.25V9.99996C0.875 9.66844 1.0067 9.3505 1.24112 9.11608C1.47554 8.88166 1.79348 8.74996 2.125 8.74996H2.98125L13.2812 1.48121C13.4917 1.33329 13.7427 1.25391 14 1.25391C14.2573 1.25391 14.5083 1.33329 14.7188 1.48121L25.0188 8.74996H25.875C26.2065 8.74996 26.5245 8.88166 26.7589 9.11608C26.9933 9.3505 27.125 9.66844 27.125 9.99996Z" fill="#028835"/>
<path d="M27.125 11.8761H24.625C24.2349 11.8754 23.8548 11.7531 23.5375 11.5261L14 4.79489L4.45625 11.5324C4.13998 11.7559 3.76227 11.876 3.375 11.8761H0.875C0.70924 11.8761 0.550268 11.8103 0.433058 11.6931C0.315848 11.5759 0.25 11.4169 0.25 11.2511V10.0011C0.25 9.50386 0.447544 9.02695 0.799175 8.67531C1.15081 8.32368 1.62772 8.12614 2.125 8.12614H2.75L12.9188 0.969889C13.2387 0.752784 13.6165 0.636719 14.0031 0.636719C14.3898 0.636719 14.7675 0.752784 15.0875 0.969889L25.25 8.12614H25.875C26.3723 8.12614 26.8492 8.32368 27.2008 8.67531C27.5525 9.02695 27.75 9.50386 27.75 10.0011V11.2511C27.75 11.4169 27.6842 11.5759 27.5669 11.6931C27.4497 11.8103 27.2908 11.8761 27.125 11.8761ZM14 3.40739C14.2937 3.40739 13.5187 2.92614 24.2687 10.5074C24.4813 10.6636 24.4688 10.6261 26.5 10.6261V10.0011C26.5 9.83538 26.4342 9.67641 26.3169 9.5592C26.1997 9.44199 26.0408 9.37614 25.875 9.37614C25.0187 9.37614 24.875 9.41364 24.625 9.26364L14.3562 1.99489C14.2523 1.92368 14.1292 1.88557 14.0031 1.88557C13.8771 1.88557 13.754 1.92368 13.65 1.99489C2.4625 9.88239 3.275 9.37614 2.98125 9.37614H2.125C1.95924 9.37614 1.80027 9.44199 1.68306 9.5592C1.56585 9.67641 1.5 9.83538 1.5 10.0011V10.6261H3.375C3.6625 10.6261 2.9 11.0949 13.6375 3.51989C13.7437 3.44572 13.8704 3.40641 14 3.40739Z" fill="#004C3F"/>
<path d="M25.25 26.875H2.75C2.58424 26.875 2.42527 26.8092 2.30806 26.6919C2.19085 26.5747 2.125 26.4158 2.125 26.25V11.25C2.125 11.0842 2.19085 10.9253 2.30806 10.8081C2.42527 10.6908 2.58424 10.625 2.75 10.625C2.91576 10.625 3.07473 10.6908 3.19194 10.8081C3.30915 10.9253 3.375 11.0842 3.375 11.25V25.625H24.625V11.25C24.625 11.0842 24.6908 10.9253 24.8081 10.8081C24.9253 10.6908 25.0842 10.625 25.25 10.625C25.4158 10.625 25.5747 10.6908 25.6919 10.8081C25.8092 10.9253 25.875 11.0842 25.875 11.25V26.25C25.875 26.4158 25.8092 26.5747 25.6919 26.6919C25.5747 26.8092 25.4158 26.875 25.25 26.875Z" fill="#004C3F"/>
<path opacity="0.4" d="M14 13.125C15.0355 13.125 15.875 12.2855 15.875 11.25C15.875 10.2145 15.0355 9.375 14 9.375C12.9645 9.375 12.125 10.2145 12.125 11.25C12.125 12.2855 12.9645 13.125 14 13.125Z" fill="#028835"/>
<path opacity="0.4" d="M9 14.375H5.25C4.90482 14.375 4.625 14.6548 4.625 15V21.25C4.625 21.5952 4.90482 21.875 5.25 21.875H9C9.34518 21.875 9.625 21.5952 9.625 21.25V15C9.625 14.6548 9.34518 14.375 9 14.375Z" fill="#028835"/>
<path opacity="0.4" d="M19 21.875H22.75C23.0952 21.875 23.375 21.5952 23.375 21.25V15C23.375 14.6548 23.0952 14.375 22.75 14.375H19C18.6548 14.375 18.375 14.6548 18.375 15V21.25C18.375 21.5952 18.6548 21.875 19 21.875Z" fill="#028835"/>
<path opacity="0.4" d="M17.125 25.625H10.875V20C10.875 19.1712 11.2042 18.3763 11.7903 17.7903C12.3763 17.2042 13.1712 16.875 14 16.875C14.8288 16.875 15.6237 17.2042 16.2097 17.7903C16.7958 18.3763 17.125 19.1712 17.125 20V25.625ZM27.75 18.125V21.675C27.7508 23.2266 27.2704 24.7403 26.3749 26.0075C25.4794 27.2746 24.2129 28.2328 22.75 28.75C21.2871 28.2328 20.0206 27.2746 19.1251 26.0075C18.2296 24.7403 17.7492 23.2266 17.75 21.675V18.125C18.3134 18.1247 18.8615 17.9418 19.3122 17.6038C19.7629 17.2657 20.0919 16.7908 20.25 16.25H25.25C25.4081 16.7908 25.7371 17.2657 26.1878 17.6038C26.6385 17.9418 27.1866 18.1247 27.75 18.125Z" fill="#028835"/>
<path d="M22.4 29.2884C20.8535 28.7025 19.5213 27.6612 18.5794 26.3019C17.6375 24.9427 17.1304 23.3295 17.125 21.6758V18.1258C17.125 17.9601 17.1908 17.8011 17.3081 17.6839C17.4253 17.5667 17.5842 17.5008 17.75 17.5008C18.1647 17.5012 18.569 17.3709 18.9055 17.1286C19.242 16.8863 19.4938 16.5442 19.625 16.1509C19.649 16.003 19.7252 15.8686 19.84 15.7722C19.9547 15.6759 20.1002 15.6239 20.25 15.6258H25.25C25.3863 15.6187 25.5212 15.6564 25.634 15.7332C25.7469 15.8099 25.8315 15.9215 25.875 16.0509C25.9895 16.4624 26.2339 16.8259 26.5718 17.0872C26.9096 17.3485 27.3229 17.4936 27.75 17.5008C27.9158 17.5008 28.0747 17.5667 28.1919 17.6839C28.3092 17.8011 28.375 17.9601 28.375 18.1258V21.6758C28.3708 23.3539 27.8495 24.9898 26.8821 26.361C25.9147 27.7321 24.5482 28.7717 22.9687 29.3383C22.8753 29.3679 22.777 29.3787 22.6794 29.3701C22.5818 29.3615 22.4868 29.3337 22.4 29.2884ZM18.375 18.6883V21.6758C18.3797 23.0588 18.7992 24.4085 19.5791 25.5506C20.359 26.6926 21.4636 27.5744 22.75 28.0821C24.0364 27.5744 25.141 26.6926 25.9209 25.5506C26.7008 24.4085 27.1203 23.0588 27.125 21.6758V18.6883C26.6243 18.591 26.154 18.3759 25.7529 18.0607C25.3519 17.7455 25.0317 17.3394 24.8188 16.8758H20.6812C20.4683 17.3394 20.1481 17.7455 19.7471 18.0607C19.346 18.3759 18.8757 18.591 18.375 18.6883Z" fill="#004C3F"/>
<path d="M22.7501 18.125V22.5H19.6876C19.5945 21.5321 19.5736 20.5585 19.6251 19.5875C20.3321 19.2625 20.9419 18.7584 21.3939 18.125H22.7501Z" fill="#028835"/>
<path d="M25.875 19.5875C25.9265 20.5585 25.9056 21.5321 25.8125 22.5H22.75V18.125H24.1062C24.5567 18.7598 25.1669 19.2643 25.875 19.5875ZM22.75 22.5V26.7188C21.9386 26.3127 21.2368 25.7175 20.7037 24.9832C20.1707 24.249 19.8222 23.3973 19.6875 22.5H22.75Z" fill="#F8F9FC"/>
<path d="M25.8125 22.5C25.6778 23.3973 25.3293 24.249 24.7963 24.9832C24.2632 25.7175 23.5614 26.3127 22.75 26.7188V22.5H25.8125Z" fill="#028835"/>
</svg>
