<svg width="30" height="30" viewBox="0 0 30 30" fill="none" xmlns="http://www.w3.org/2000/svg">
<path opacity="0.4" d="M26.875 13.7495L26.5125 13.4558C25.7525 12.8496 24.7959 12.5445 23.8252 12.5987C22.8546 12.6529 21.9379 13.0625 21.25 13.7495L20.625 13.2245C19.9244 12.6636 19.0537 12.358 18.1562 12.358C17.2588 12.358 16.3881 12.6636 15.6875 13.2245L15 13.7495L14.375 13.2245C13.6744 12.6636 12.8037 12.358 11.9062 12.358C11.0088 12.358 10.1381 12.6636 9.4375 13.2245L8.75 13.7495C8.06284 13.0613 7.14594 12.6508 6.17491 12.5966C5.20388 12.5423 4.24698 12.8483 3.4875 13.4558L3.125 13.7495L3.2 13.062C3.52752 10.1617 4.91168 7.48365 7.08824 5.53904C9.2648 3.59444 12.0813 2.51953 15 2.51953C17.9187 2.51953 20.7352 3.59444 22.9118 5.53904C25.0883 7.48365 26.4725 10.1617 26.8 13.062L26.875 13.7495Z" fill="#028835"/>
<path d="M3.75 21.875H8.75C9.41304 21.875 10.0489 22.1384 10.5178 22.6072C10.9866 23.0761 11.25 23.712 11.25 24.375V28.75H1.25V24.375C1.25 23.712 1.51339 23.0761 1.98223 22.6072C2.45107 22.1384 3.08696 21.875 3.75 21.875Z" fill="#F8F9FC"/>
<path d="M3.74951 29.375C3.58375 29.375 3.42478 29.3092 3.30757 29.1919C3.19036 29.0747 3.12451 28.9158 3.12451 28.75V25.625C3.12451 25.4592 3.19036 25.3003 3.30757 25.1831C3.42478 25.0658 3.58375 25 3.74951 25C3.91527 25 4.07424 25.0658 4.19145 25.1831C4.30866 25.3003 4.37451 25.4592 4.37451 25.625V28.75C4.37451 28.9158 4.30866 29.0747 4.19145 29.1919C4.07424 29.3092 3.91527 29.375 3.74951 29.375ZM8.74951 29.375C8.58375 29.375 8.42478 29.3092 8.30757 29.1919C8.19036 29.0747 8.12451 28.9158 8.12451 28.75V25.625C8.12451 25.4592 8.19036 25.3003 8.30757 25.1831C8.42478 25.0658 8.58375 25 8.74951 25C8.91527 25 9.07424 25.0658 9.19145 25.1831C9.30866 25.3003 9.37451 25.4592 9.37451 25.625V28.75C9.37451 28.9158 9.30866 29.0747 9.19145 29.1919C9.07424 29.3092 8.91527 29.375 8.74951 29.375Z" fill="#004C3F"/>
<path d="M6.25 21.875C5.58696 21.875 4.95107 21.6116 4.48223 21.1428C4.01339 20.6739 3.75 20.038 3.75 19.375V18.75C3.75 18.087 4.01339 17.4511 4.48223 16.9822C4.95107 16.5134 5.58696 16.25 6.25 16.25C6.91304 16.25 7.54893 16.5134 8.01777 16.9822C8.48661 17.4511 8.75 18.087 8.75 18.75V19.375C8.75 20.038 8.48661 20.6739 8.01777 21.1428C7.54893 21.6116 6.91304 21.875 6.25 21.875Z" fill="#F8F9FC"/>
<path d="M13.7493 29.375C11.8743 29.375 11.2993 26.875 12.4993 26.875C12.665 26.875 12.824 26.9408 12.9412 27.0581C13.0584 27.1753 13.1243 27.3342 13.1243 27.5C13.1243 27.6658 13.1901 27.8247 13.3073 27.9419C13.4245 28.0592 13.5835 28.125 13.7493 28.125C13.915 28.125 14.074 28.0592 14.1912 27.9419C14.3084 27.8247 14.3743 27.6658 14.3743 27.5V13.125C14.3743 12.9592 14.4401 12.8003 14.5573 12.6831C14.6745 12.5658 14.8335 12.5 14.9993 12.5C15.165 12.5 15.324 12.5658 15.4412 12.6831C15.5584 12.8003 15.6243 12.9592 15.6243 13.125V27.5C15.6243 27.9973 15.4267 28.4742 15.0751 28.8258C14.7235 29.1775 14.2465 29.375 13.7493 29.375Z" fill="#028835"/>
<path d="M11.25 29.375C11.0842 29.375 10.9253 29.3092 10.8081 29.1919C10.6908 29.0747 10.625 28.9158 10.625 28.75V24.375C10.625 23.8777 10.4275 23.4008 10.0758 23.0492C9.72419 22.6975 9.24728 22.5 8.75 22.5H3.75C3.25272 22.5 2.77581 22.6975 2.42417 23.0492C2.07254 23.4008 1.875 23.8777 1.875 24.375V28.75C1.875 28.9158 1.80915 29.0747 1.69194 29.1919C1.57473 29.3092 1.41576 29.375 1.25 29.375C1.08424 29.375 0.925268 29.3092 0.808058 29.1919C0.690848 29.0747 0.625 28.9158 0.625 28.75V24.375C0.625 23.5462 0.95424 22.7513 1.54029 22.1653C2.12634 21.5792 2.9212 21.25 3.75 21.25H8.75C9.5788 21.25 10.3737 21.5792 10.9597 22.1653C11.5458 22.7513 11.875 23.5462 11.875 24.375V28.75C11.875 28.9158 11.8092 29.0747 11.6919 29.1919C11.5747 29.3092 11.4158 29.375 11.25 29.375Z" fill="#004C3F"/>
<path d="M6.25031 22.5013C5.42151 22.5013 4.62665 22.1721 4.0406 21.5861C3.45455 21 3.12531 20.2051 3.12531 19.3763V18.7513C3.12531 17.9225 3.45455 17.1277 4.0406 16.5416C4.62665 15.9556 5.42151 15.6263 6.25031 15.6263C7.07911 15.6263 7.87397 15.9556 8.46002 16.5416C9.04607 17.1277 9.37531 17.9225 9.37531 18.7513V19.3763C9.37531 20.2051 9.04607 21 8.46002 21.5861C7.87397 22.1721 7.07911 22.5013 6.25031 22.5013ZM6.25031 16.8763C5.75303 16.8763 5.27612 17.0739 4.92448 17.4255C4.57285 17.7771 4.37531 18.2541 4.37531 18.7513V19.3763C4.37531 19.8736 4.57285 20.3505 4.92448 20.7022C5.27612 21.0538 5.75303 21.2513 6.25031 21.2513C6.74759 21.2513 7.2245 21.0538 7.57614 20.7022C7.92777 20.3505 8.12531 19.8736 8.12531 19.3763V18.7513C8.12531 18.2541 7.92777 17.7771 7.57614 17.4255C7.2245 17.0739 6.74759 16.8763 6.25031 16.8763ZM26.8753 14.3763C26.6003 14.3763 26.4878 14.2388 26.1191 13.9451C25.4798 13.4354 24.6751 13.1792 23.8588 13.2253C23.0426 13.2714 22.2719 13.6167 21.6941 14.1951C21.5851 14.3032 21.4401 14.3674 21.2868 14.3755C21.1335 14.3836 20.9826 14.3349 20.8628 14.2388L20.2066 13.7138C19.6173 13.2379 18.8827 12.9784 18.1253 12.9784C17.3679 12.9784 16.6333 13.2379 16.0441 13.7138L15.4191 14.2388C15.3044 14.327 15.1637 14.3748 15.0191 14.3748C14.8744 14.3748 14.7338 14.327 14.6191 14.2388L13.9941 13.7138C13.4063 13.2373 12.6726 12.9773 11.9159 12.9773C11.1593 12.9773 10.4256 13.2373 9.83781 13.7138L9.18156 14.2388C9.06182 14.3349 8.9109 14.3836 8.75759 14.3755C8.60428 14.3674 8.45931 14.3032 8.35031 14.1951C7.77145 13.6162 6.99972 13.2708 6.18238 13.2247C5.36505 13.1785 4.55935 13.435 3.91906 13.9451L3.56281 14.2388C3.46901 14.336 3.34628 14.4001 3.21299 14.4216C3.0797 14.4432 2.94302 14.421 2.8234 14.3583C2.70378 14.2957 2.60766 14.196 2.54942 14.0742C2.49118 13.9524 2.47395 13.815 2.50031 13.6826L2.57531 12.9951C3.70656 2.83259 15.8253 -1.64866 23.3378 5.05759C25.6253 7.11359 27.0778 9.93838 27.4191 12.9951L27.4941 13.6826C27.5037 13.7697 27.4949 13.8579 27.4682 13.9414C27.4416 14.025 27.3976 14.1019 27.3393 14.1674C27.2809 14.2328 27.2095 14.2852 27.1295 14.3212C27.0496 14.3572 26.963 14.376 26.8753 14.3763ZM14.7378 12.7388L15.0003 12.9513L15.2628 12.7388C16.0728 12.0833 17.0833 11.7256 18.1253 11.7256C19.1674 11.7256 20.1778 12.0833 20.9878 12.7388L21.2316 12.9326C21.9122 12.4031 22.7284 12.0765 23.5863 11.9903C24.4443 11.904 25.3092 12.0617 26.0816 12.4451C25.6248 9.83775 24.2633 7.47497 22.2365 5.77235C20.2096 4.06973 17.6474 3.13633 15.0003 3.13633C12.3533 3.13633 9.79098 4.06973 7.76416 5.77235C5.73735 7.47497 4.37582 9.83775 3.91906 12.4451C4.69161 12.0624 5.55635 11.9052 6.41417 11.9914C7.27198 12.0776 8.08813 12.4038 8.76906 12.9326L9.01906 12.7388C9.82855 12.0849 10.8378 11.7281 11.8784 11.7281C12.9191 11.7281 13.9283 12.0849 14.7378 12.7388Z" fill="#004C3F"/>
<path d="M21.2501 14.375C21.0907 14.3753 20.9371 14.3146 20.821 14.2054C20.7048 14.0962 20.6347 13.9467 20.6251 13.7875L20.5876 13.125C20.2564 7.5 17.8064 3.125 15.0001 3.125C12.1939 3.125 9.7439 7.5 9.41265 13.125L9.37515 13.7875C9.3652 13.9533 9.28982 14.1083 9.16557 14.2185C9.04133 14.3286 8.87841 14.3849 8.71265 14.375C8.54689 14.3651 8.39187 14.2897 8.28169 14.1654C8.17151 14.0412 8.1152 13.8783 8.12515 13.7125L8.1689 13.025C8.53765 6.66875 11.4751 1.875 15.0001 1.875C18.5251 1.875 21.4626 6.66875 21.8314 13.025L21.8751 13.7125C21.8803 13.7977 21.8679 13.883 21.8388 13.9632C21.8097 14.0434 21.7645 14.1168 21.7059 14.1789C21.6473 14.241 21.5767 14.2904 21.4983 14.3241C21.4199 14.3578 21.3355 14.3752 21.2501 14.375Z" fill="#004C3F"/>
<path d="M14.9995 14.375C14.8338 14.375 14.6748 14.3092 14.5576 14.1919C14.4404 14.0747 14.3745 13.9158 14.3745 13.75V1.25C14.3745 1.08424 14.4404 0.925268 14.5576 0.808058C14.6748 0.690848 14.8338 0.625 14.9995 0.625C15.1653 0.625 15.3242 0.690848 15.4415 0.808058C15.5587 0.925268 15.6245 1.08424 15.6245 1.25V13.75C15.6245 13.9158 15.5587 14.0747 15.4415 14.1919C15.3242 14.3092 15.1653 14.375 14.9995 14.375Z" fill="#004C3F"/>
<path d="M21.25 28.75H28.75V24.375C28.75 23.712 28.4866 23.0761 28.0178 22.6072C27.5489 22.1384 26.913 21.875 26.25 21.875H21.6625C21.3341 21.8747 21.0089 21.9392 20.7054 22.0647C20.4019 22.1901 20.1261 22.3742 19.8938 22.6062L18.125 24.375L15.2125 23.9563C15.0323 23.9305 14.8487 23.9434 14.6739 23.9942C14.499 24.0449 14.337 24.1324 14.1987 24.2506C14.0603 24.3689 13.9487 24.5153 13.8713 24.6801C13.794 24.8449 13.7526 25.0242 13.75 25.2063C13.75 25.4972 13.849 25.7795 14.0308 26.0066C14.2125 26.2338 14.4662 26.3924 14.75 26.4563L18.3687 27.2563C18.6761 27.325 18.9958 27.3153 19.2984 27.2279C19.601 27.1405 19.8766 26.9783 20.1 26.7563L21.25 25.625V28.75Z" fill="#F8F9FC"/>
<path d="M26.2495 29.375C26.0838 29.375 25.9248 29.3092 25.8076 29.1919C25.6904 29.0747 25.6245 28.9158 25.6245 28.75V25.625C25.6245 25.4592 25.6904 25.3003 25.8076 25.1831C25.9248 25.0658 26.0838 25 26.2495 25C26.4153 25 26.5742 25.0658 26.6915 25.1831C26.8087 25.3003 26.8745 25.4592 26.8745 25.625V28.75C26.8745 28.9158 26.8087 29.0747 26.6915 29.1919C26.5742 29.3092 26.4153 29.375 26.2495 29.375Z" fill="#004C3F"/>
<path d="M23.75 21.875C23.087 21.875 22.4511 21.6116 21.9822 21.1428C21.5134 20.6739 21.25 20.038 21.25 19.375V18.75C21.25 18.087 21.5134 17.4511 21.9822 16.9822C22.4511 16.5134 23.087 16.25 23.75 16.25C24.413 16.25 25.0489 16.5134 25.5178 16.9822C25.9866 17.4511 26.25 18.087 26.25 18.75V19.375C26.25 20.038 25.9866 20.6739 25.5178 21.1428C25.0489 21.6116 24.413 21.875 23.75 21.875Z" fill="#F8F9FC"/>
<path d="M28.7499 29.375C28.5842 29.375 28.4252 29.3092 28.308 29.192C28.1908 29.0748 28.1249 28.9158 28.1249 28.75V24.375C28.1249 23.8777 27.9274 23.4008 27.5757 23.0492C27.2241 22.6976 26.7472 22.5 26.2499 22.5H21.6624C21.1653 22.5005 20.6887 22.6983 20.3374 23.05L18.5687 24.8188C18.4998 24.8872 18.4159 24.9386 18.3237 24.969C18.2315 24.9994 18.1335 25.0079 18.0374 24.9938L15.1187 24.575C14.9479 24.5444 14.772 24.5828 14.6296 24.6818C14.4872 24.7809 14.39 24.9324 14.3593 25.1031C14.3286 25.2739 14.367 25.4498 14.4661 25.5922C14.5651 25.7346 14.7167 25.8319 14.8874 25.8625L18.5062 26.6688C18.7117 26.7145 18.9255 26.7075 19.1276 26.6485C19.3298 26.5895 19.5137 26.4804 19.6624 26.3313L20.8062 25.1813C20.8936 25.0931 21.0053 25.033 21.127 25.0086C21.2487 24.9842 21.3749 24.9966 21.4896 25.0442C21.6042 25.0918 21.7021 25.1724 21.7708 25.2759C21.8394 25.3793 21.8756 25.5009 21.8749 25.625V28.75C21.8749 28.9158 21.8091 29.0748 21.6919 29.192C21.5747 29.3092 21.4157 29.375 21.2499 29.375C21.0842 29.375 20.9252 29.3092 20.808 29.192C20.6908 29.0748 20.6249 28.9158 20.6249 28.75V27.1313C20.3286 27.4562 19.9519 27.6971 19.5327 27.8299C19.1135 27.9627 18.6667 27.9826 18.2374 27.8875L14.6187 27.0813C14.1899 26.9923 13.8058 26.7562 13.533 26.4137C13.2602 26.0712 13.1158 25.644 13.1249 25.2063C13.1267 24.9343 13.1866 24.6658 13.3007 24.4188C13.4148 24.1719 13.5804 23.9523 13.7865 23.7747C13.9925 23.5971 14.2341 23.4656 14.4952 23.3891C14.7562 23.3126 15.0306 23.2929 15.2999 23.3313L17.9062 23.7063L19.4499 22.1563C20.0381 21.5729 20.8339 21.2469 21.6624 21.25H26.2499C27.0787 21.25 27.8736 21.5793 28.4596 22.1653C29.0457 22.7514 29.3749 23.5462 29.3749 24.375V28.75C29.3749 28.9158 29.3091 29.0748 29.1919 29.192C29.0747 29.3092 28.9157 29.375 28.7499 29.375Z" fill="#004C3F"/>
<path d="M23.7505 22.5C22.9217 22.5 22.1268 22.1708 21.5408 21.5847C20.9547 20.9987 20.6255 20.2038 20.6255 19.375V18.75C20.6255 17.9212 20.9547 17.1263 21.5408 16.5403C22.1268 15.9542 22.9217 15.625 23.7505 15.625C24.5793 15.625 25.3741 15.9542 25.9602 16.5403C26.5462 17.1263 26.8755 17.9212 26.8755 18.75V19.375C26.8755 20.2038 26.5462 20.9987 25.9602 21.5847C25.3741 22.1708 24.5793 22.5 23.7505 22.5ZM23.7505 16.875C23.2532 16.875 22.7763 17.0725 22.4247 17.4242C22.073 17.7758 21.8755 18.2527 21.8755 18.75V19.375C21.8755 19.8723 22.073 20.3492 22.4247 20.7008C22.7763 21.0525 23.2532 21.25 23.7505 21.25C24.2478 21.25 24.7247 21.0525 25.0763 20.7008C25.4279 20.3492 25.6255 19.8723 25.6255 19.375V18.75C25.6255 18.2527 25.4279 17.7758 25.0763 17.4242C24.7247 17.0725 24.2478 16.875 23.7505 16.875Z" fill="#004C3F"/>
</svg>
